/* XPM */
static char * base_xpm[] = {
"32 32 465 2",
"  	c #EDE9E6",
". 	c #EEEBE7",
"+ 	c #F5F4F2",
"@ 	c #ECEAE9",
"# 	c #BEB6B5",
"$ 	c #958282",
"% 	c #7C6263",
"& 	c #725352",
"* 	c #735353",
"= 	c #7D6363",
"- 	c #958384",
"; 	c #C0B7B6",
"> 	c #ECEBEA",
", 	c #F4F3F1",
"' 	c #EEEBE8",
") 	c #F1F1ED",
"! 	c #B4AEAC",
"~ 	c #5A4141",
"{ 	c #260100",
"] 	c #260000",
"^ 	c #2D0000",
"/ 	c #300000",
"( 	c #310000",
"_ 	c #270201",
": 	c #5C4443",
"< 	c #B6AFAD",
"[ 	c #F0F0EB",
"} 	c #F2F1ED",
"| 	c #BAB3B1",
"1 	c #412728",
"2 	c #210000",
"3 	c #2D0001",
"4 	c #310001",
"5 	c #442A2B",
"6 	c #BBB5B2",
"7 	c #F0F0EC",
"8 	c #EDE8E5",
"9 	c #ECE8E5",
"0 	c #706161",
"a 	c #1F0000",
"b 	c #290101",
"c 	c #2F0000",
"d 	c #200000",
"e 	c #746363",
"f 	c #E8E9E4",
"g 	c #EDE9E5",
"h 	c #E0E0DB",
"i 	c #493535",
"j 	c #2B0101",
"k 	c #4C3838",
"l 	c #DFDEDA",
"m 	c #E4E0DD",
"n 	c #442D2E",
"o 	c #2D0101",
"p 	c #320100",
"q 	c #320000",
"r 	c #2C0101",
"s 	c #442F30",
"t 	c #E2DFDC",
"u 	c #F1EEEA",
"v 	c #564141",
"w 	c #220000",
"x 	c #320101",
"y 	c #380100",
"z 	c #3A0101",
"A 	c #390100",
"B 	c #230000",
"C 	c #564242",
"D 	c #F0EDEA",
"E 	c #F1EDEA",
"F 	c #8F8280",
"G 	c #280101",
"H 	c #360101",
"I 	c #430102",
"J 	c #450101",
"K 	c #460001",
"L 	c #460002",
"M 	c #440000",
"N 	c #430000",
"O 	c #450000",
"P 	c #460101",
"Q 	c #290202",
"R 	c #8E817F",
"S 	c #F0ECE9",
"T 	c #DBD7D5",
"U 	c #320909",
"V 	c #330000",
"W 	c #693131",
"X 	c #540607",
"Y 	c #520102",
"Z 	c #500000",
"` 	c #916162",
" .	c #BCA0A1",
"..	c #BB9FA0",
"+.	c #B89C9C",
"@.	c #AC8A8B",
"#.	c #8F5E5F",
"$.	c #520506",
"%.	c #530305",
"&.	c #6B3535",
"*.	c #330A0B",
"=.	c #DBD6D5",
"-.	c #7E6765",
";.	c #380000",
">.	c #743F3F",
",.	c #FFFFFF",
"'.	c #BBA4A3",
").	c #5F0000",
"!.	c #600202",
"~.	c #5E0000",
"{.	c #BE9B9B",
"].	c #732A29",
"^.	c #BA9595",
"/.	c #7A4D4E",
"(.	c #7F6766",
"_.	c #ECEBE8",
":.	c #3C0607",
"<.	c #F1ECEB",
"[.	c #6E3232",
"}.	c #6E0000",
"|.	c #6A0000",
"1.	c #6E0102",
"2.	c #6D0101",
"3.	c #6C0000",
"4.	c #C49B9B",
"5.	c #E6DFDF",
"6.	c #660000",
"7.	c #6D0102",
"8.	c #6D0000",
"9.	c #7F2626",
"0.	c #F6F5F5",
"a.	c #420000",
"b.	c #3B0707",
"c.	c #EDEBE9",
"d.	c #B1A2A0",
"e.	c #460000",
"f.	c #8F5A59",
"g.	c #B8A7A7",
"h.	c #790000",
"i.	c #A35252",
"j.	c #DCBFBF",
"k.	c #790101",
"l.	c #7D0202",
"m.	c #7C0000",
"n.	c #CA9B9B",
"o.	c #DBD4D3",
"p.	c #893E3E",
"q.	c #750B0B",
"r.	c #7B0000",
"s.	c #D8B8B8",
"t.	c #A55D5E",
"u.	c #C69898",
"v.	c #93696A",
"w.	c #480000",
"x.	c #896363",
"y.	c #D9C2C2",
"z.	c #802426",
"A.	c #8B0000",
"B.	c #FDFEFD",
"C.	c #7B0A0B",
"D.	c #8D0101",
"E.	c #8C0000",
"F.	c #D19B9B",
"G.	c #D6CACA",
"H.	c #860000",
"I.	c #F0E3E3",
"J.	c #8C2829",
"K.	c #8C0101",
"L.	c #860405",
"M.	c #931717",
"N.	c #DAD1D1",
"O.	c #886364",
"P.	c #703534",
"Q.	c #5D0000",
"R.	c #E9E9E9",
"S.	c #BF5D5D",
"T.	c #B39191",
"U.	c #9E0100",
"V.	c #9D0402",
"W.	c #9C0000",
"X.	c #D69C9C",
"Y.	c #D8CBCA",
"Z.	c #960000",
"`.	c #F3E5E5",
" +	c #952828",
".+	c #9D0201",
"++	c #CB8282",
"@+	c #B86B6C",
"#+	c #9A0000",
"$+	c #EEDADA",
"%+	c #560202",
"&+	c #713635",
"*+	c #651818",
"=+	c #7F2322",
"-+	c #C8ADAC",
";+	c #AE0000",
">+	c #E1A7A7",
",+	c #9D3030",
"'+	c #AF0303",
")+	c #AD0000",
"!+	c #DD9B9B",
"~+	c #DED3D3",
"{+	c #BA3333",
"]+	c #930000",
"^+	c #B52222",
"/+	c #D5B5B5",
"(+	c #DE9E9E",
"_+	c #7B3132",
":+	c #651918",
"<+	c #64090A",
"[+	c #933B3A",
"}+	c #C79292",
"|+	c #BD0000",
"1+	c #EFCACA",
"2+	c #A20505",
"3+	c #C1191A",
"4+	c #EEC7C7",
"5+	c #BE1E1F",
"6+	c #E49B9C",
"7+	c #D0BEBF",
"8+	c #9B3838",
"9+	c #C21919",
"0+	c #EEC6C7",
"a+	c #BF2122",
"b+	c #B90000",
"c+	c #E1D9D8",
"d+	c #B80000",
"e+	c #DD8484",
"f+	c #8C494A",
"g+	c #650A0B",
"h+	c #6A0B0A",
"i+	c #9A393A",
"j+	c #CD9292",
"k+	c #CC0000",
"l+	c #F2CACA",
"m+	c #B10506",
"n+	c #D02F2F",
"o+	c #FCFFFF",
"p+	c #AD3837",
"q+	c #EA9B9B",
"r+	c #FDF6F6",
"s+	c #DD706F",
"t+	c #CF2827",
"u+	c #AD3B3C",
"v+	c #C70000",
"w+	c #E0D8D8",
"x+	c #C60000",
"y+	c #E38483",
"z+	c #914849",
"A+	c #6B0C0A",
"B+	c #7A1A1A",
"C+	c #962324",
"D+	c #DAACAC",
"E+	c #DA0000",
"F+	c #EEA7A7",
"G+	c #C93130",
"H+	c #D90101",
"I+	c #D70000",
"J+	c #EF9B9C",
"K+	c #E7DCDC",
"L+	c #C66A6A",
"M+	c #CE302F",
"N+	c #BE0000",
"O+	c #D80100",
"P+	c #DB2322",
"Q+	c #D2B5B5",
"R+	c #D90000",
"S+	c #EE9E9E",
"T+	c #873132",
"U+	c #7C1B1C",
"V+	c #8C3939",
"W+	c #880000",
"X+	c #EEEAE9",
"Y+	c #DC0000",
"Z+	c #E95D5D",
"`+	c #E09292",
" @	c #E50000",
".@	c #E30303",
"+@	c #E30000",
"@@	c #F39B9C",
"#@	c #DDCACA",
"$@	c #E40000",
"%@	c #F9E4E4",
"&@	c #D67777",
"*@	c #E50203",
"=@	c #E30102",
"-@	c #EE8384",
";@	c #C46C6D",
">@	c #F8DBDA",
",@	c #730203",
"'@	c #8E3A3B",
")@	c #A56766",
"!@	c #8A0000",
"~@	c #E7C2C1",
"{@	c #D62625",
"]@	c #FCFCFC",
"^@	c #D60808",
"/@	c #E60203",
"(@	c #E60000",
"_@	c #F49C9B",
":@	c #DECACA",
"<@	c #FBE1E1",
"[@	c #D48384",
"}@	c #EA0203",
"|@	c #FDFFFF",
"1@	c #BE0506",
"2@	c #E61818",
"3@	c #D8D1D0",
"4@	c #840000",
"5@	c #A76968",
"6@	c #C1A9A7",
"7@	c #8D0000",
"8@	c #C25959",
"9@	c #E6A8A8",
"0@	c #E80000",
"a@	c #E04F4F",
"b@	c #C7ABAB",
"c@	c #D00000",
"d@	c #F49C9C",
"e@	c #D48485",
"f@	c #E90102",
"g@	c #DDA3A3",
"h@	c #B05A5A",
"i@	c #E90000",
"j@	c #F29999",
"k@	c #A6696A",
"l@	c #900000",
"m@	c #C2ABAA",
"n@	c #EBEDEC",
"o@	c #870505",
"p@	c #A00000",
"q@	c #F7EBEB",
"r@	c #E03535",
"s@	c #EA0405",
"t@	c #EC0001",
"u@	c #E90506",
"v@	c #E90303",
"w@	c #F59C9D",
"x@	c #DFCCCB",
"y@	c #E91F20",
"z@	c #FEFFFF",
"A@	c #D37E80",
"B@	c #ED0506",
"C@	c #EA0002",
"D@	c #EC0304",
"E@	c #EA292A",
"F@	c #F2F5F4",
"G@	c #890000",
"H@	c #890807",
"I@	c #EEEDE9",
"J@	c #AB6768",
"K@	c #9D0202",
"L@	c #C64040",
"M@	c #D39898",
"N@	c #E90203",
"O@	c #F69C9C",
"P@	c #CB6161",
"Q@	c #EB0506",
"R@	c #E90405",
"S@	c #F28989",
"T@	c #9E4D4D",
"U@	c #9F0201",
"V@	c #AC696A",
"W@	c #EFECE8",
"X@	c #DFDDDA",
"Y@	c #940100",
"Z@	c #B20101",
"`@	c #C22726",
" #	c #CE0304",
".#	c #EC0306",
"+#	c #EC0003",
"@#	c #FAFFFF",
"##	c #C30B0B",
"$#	c #B5292A",
"%#	c #AB0000",
"&#	c #940303",
"*#	c #DFDDD9",
"=#	c #EEECE8",
"-#	c #B47B7B",
";#	c #A60000",
">#	c #C60405",
",#	c #E70404",
"'#	c #EC0104",
")#	c #E27777",
"!#	c #D4C1C1",
"~#	c #D5C2C1",
"{#	c #D5C1C1",
"]#	c #D4BFBF",
"^#	c #CFB1B1",
"/#	c #C88D8D",
"(#	c #BA1D1D",
"_#	c #EF0406",
":#	c #A50001",
"<#	c #B57D7C",
"[#	c #EEECE9",
"}#	c #EDF0EC",
"|#	c #A12F2E",
"1#	c #B10303",
"2#	c #D40404",
"3#	c #EA0506",
"4#	c #ED0307",
"5#	c #EC0406",
"6#	c #EC0407",
"7#	c #ED0002",
"8#	c #EC0000",
"9#	c #EE0000",
"0#	c #EF0002",
"a#	c #F10205",
"b#	c #A23030",
"c#	c #EDEFEC",
"d#	c #E2DEDE",
"e#	c #A21515",
"f#	c #BA0404",
"g#	c #DB0605",
"h#	c #ED0407",
"i#	c #BA0403",
"j#	c #A31616",
"k#	c #E1DFDE",
"l#	c #DCD4D5",
"m#	c #A61515",
"n#	c #BF0405",
"o#	c #DC0505",
"p#	c #BF0305",
"q#	c #A71716",
"r#	c #DCD6D3",
"s#	c #E1DEDE",
"t#	c #AC3131",
"u#	c #C00203",
"v#	c #DA0505",
"w#	c #EE0508",
"x#	c #D90505",
"y#	c #C00202",
"z#	c #AB3332",
"A#	c #ECEFEC",
"B#	c #BE7F7F",
"C#	c #B60707",
"D#	c #D10404",
"E#	c #E20606",
"F#	c #EC0507",
"G#	c #D10304",
"H#	c #B70707",
"I#	c #ECEFED",
"J#	c #E0DDDD",
"K#	c #C06D6B",
"L#	c #BB0F0E",
"M#	c #D70101",
"N#	c #E20405",
"O#	c #E90507",
"P#	c #ED0507",
"Q#	c #EE0407",
"R#	c #E30505",
"S#	c #D60201",
"T#	c #BC100F",
"U#	c #C16E6D",
"V#	c #E0DDDA",
"W#	c #E9EDEB",
"X#	c #CFB0AF",
"Y#	c #CC7272",
"Z#	c #CE4645",
"`#	c #D22929",
" $	c #D91B1C",
".$	c #D22A29",
"+$	c #CF4645",
"@$	c #CFB1AF",
"#$	c #E9ECEB",
"                  . + @ # $ % & * = - ; > , .                   ",
"              ' ) ! ~ { ] ^ / ( ( / ^ ] _ : < [ '               ",
"            } | 1 2 3 4 ( ( ( ( ( ( ( ( 4 3 2 5 6 7 8           ",
"          9 0 a b c ( ( ( ( ( ( ( ( ( ( ( ( c b d e f g         ",
"        h i d j ( ( ( ( ( ( ( ( ( ( ( ( ( ( ( ( j d k l         ",
"      m n 2 o p p q q q q q q q q q q q q q q p p r d s t       ",
"    u v w x y z z z z z z z z z z z z z z z z z z A x B C D     ",
"  E F G H I J K K K L M N N N N M O P K K K K K K J I H Q R S   ",
"  T U V W X Y Y Y Y Z `  . . ...+.@.#.$.Y Y Y Y Y Y %.&.q *.=.  ",
"E -.;.>.,.'.).!.!.!.~.{.,.,.,.,.,.,.,.,.].!.!.!.!.).^.,./.;.(.S ",
"_.:.N <.,.[.}.|.1.2.3.4.,.,.,.,.,.,.,.,.5.6.2.7.|.8.9.,.0.a.b.c.",
"d.e.f.,.g.h.i.j.k.l.m.n.,.,.,.o.p.,.,.,.,.q.l.r.s.t.m.u.,.v.w.d.",
"x.Z y.,.z.A.B.,.C.D.E.F.,.,.,.G.H.I.,.,.,.J.D.K.,.,.L.M.,.N.Z O.",
"P.Q.,.R.E.S.,.T.U.V.W.X.,.,.,.Y.Z.`.,.,.,. +V..+++,.@+#+$+,.%+&+",
"*+=+,.-+;+>+,.,+'+)+;+!+,.,.,.~+{+,.,.,.,.]+)+'+^+,./+;+(+,._+:+",
"<+[+,.}+|+1+,.2+3+4+5+6+,.,.,.,.,.,.,.7+8+9+0+a+b+,.c+d+e+,.f+g+",
"h+i+,.j+k+l+,.m+n+o+p+q+,.,.,.,.,.,.,.r+s+t+o+u+v+,.w+x+y+,.z+A+",
"B+C+,.D+E+F+,.G+H+|+I+J+,.,.,.K+L+,.,.,.,.M+N+O+P+,.Q+R+S+,.T+U+",
"V+W+,.X+Y+Z+,.`+ @.@+@@@,.,.,.#@$@%@,.,.,.&@*@=@-@,.;@ @>@,.,@'@",
")@!@~@,.{@$@]@,.^@/@(@_@,.,.,.:@(@<@,.,.,.[@}@ @,.|@1@2@,.3@4@5@",
"6@7@8@,.9@0@a@b@c@/@(@d@,.,.,.:@(@<@,.,.,.e@f@(@g@h@i@j@,.k@l@m@",
"n@o@p@q@,.r@s@t@u@u@v@w@,.,.,.x@y@z@,.,.,.A@B@u@C@D@E@,.F@G@H@n@",
"I@J@K@L@,.M@D@u@u@u@N@O@,.,.,.,.,.,.,.,.,.P@Q@u@u@R@S@,.T@U@V@W@",
"  X@Y@Z@`@ #.#.#.#.#+#O@,.,.,.,.,.,.,.,.@###.#.#.#.#/@$#%#&#*#  ",
"  =#-#;#>#,#.#.#.#.#'#)#!#~#~#~#{#]#^#/#(#_#.#.#.#.#,#>#:#<#[#  ",
"    }#|#1#2#3#4#5#5#6#7#8#8#8#8#8#9#0#a#4#5#5#5#4#3#2#1#b#c#    ",
"      d#e#f#g#6#h#h#h#h#h#h#h#h#h#h#h#h#h#h#h#h#6#g#i#j#k#      ",
"      g l#m#n#o#6#h#h#h#h#h#h#h#h#h#h#h#h#h#h#6#o#p#q#r#        ",
"        g s#t#u#v#u@h#w#w#w#w#w#w#w#w#w#w#h#3#x#y#z#s#          ",
"            A#B#C#D#E#F#h#h#h#h#h#h#h#h#F#E#G#H#B#I#            ",
"              =#J#K#L#M#N#O#P#Q#Q#F#O#R#S#T#U#V#[#              ",
"                  [#W#X#Y#Z#`# $ $.$+$Y#@$#$[#                  "};
