/* XPM */
static char * base_xpm[] = {
"32 32 812 2",
"  	c None",
". 	c #FFFFFF",
"+ 	c #FFFFFB",
"@ 	c #F3F2EA",
"# 	c #EAE5D9",
"$ 	c #E4DFD5",
"% 	c #DDDBD3",
"& 	c #E0DDD4",
"* 	c #EDEDE1",
"= 	c #FFFFFD",
"- 	c #FFFFF8",
"; 	c #FFFCF3",
"> 	c #F8F4E9",
", 	c #E9EBDA",
"' 	c #D9E1D0",
") 	c #C8D2BB",
"! 	c #C1C9AD",
"~ 	c #B9A99E",
"{ 	c #B38F98",
"] 	c #C0709E",
"^ 	c #C76C9A",
"/ 	c #C26C95",
"( 	c #BF6896",
"_ 	c #BF6992",
": 	c #B47B92",
"< 	c #ADB49E",
"[ 	c #9D9C8D",
"} 	c #C1C0B3",
"| 	c #EFF1EE",
"1 	c #FFFFFC",
"2 	c #FEFFF8",
"3 	c #F7FDE8",
"4 	c #E5EDD9",
"5 	c #ECCBD8",
"6 	c #EEA7CE",
"7 	c #E47AB9",
"8 	c #D37CA9",
"9 	c #C674A1",
"0 	c #CF5D9B",
"a 	c #D83F9A",
"b 	c #DE3A9C",
"c 	c #E23B9F",
"d 	c #D43693",
"e 	c #D03E94",
"f 	c #CB4995",
"g 	c #C94A93",
"h 	c #CA4B95",
"i 	c #C5458B",
"j 	c #CC4C97",
"k 	c #CD4B97",
"l 	c #CC3B8F",
"m 	c #C46597",
"n 	c #B59CA2",
"o 	c #908F87",
"p 	c #D0CFCB",
"q 	c #FDFFF9",
"r 	c #F792CE",
"s 	c #FB5BBC",
"t 	c #F55FB8",
"u 	c #EF7BBB",
"v 	c #F368B9",
"w 	c #E05BA5",
"x 	c #D851A0",
"y 	c #D04B98",
"z 	c #CD4594",
"A 	c #CA4291",
"B 	c #C94090",
"C 	c #CB4290",
"D 	c #EFB6D6",
"E 	c #B1A3A9",
"F 	c #54515A",
"G 	c #A73475",
"H 	c #B7317C",
"I 	c #B8317E",
"J 	c #B9327D",
"K 	c #B8337E",
"L 	c #BC3683",
"M 	c #C0438A",
"N 	c #C84793",
"O 	c #B73E83",
"P 	c #BBA7AC",
"Q 	c #A09589",
"R 	c #D0D0CD",
"S 	c #FDFFFB",
"T 	c #ED7BBA",
"U 	c #F160B0",
"V 	c #D94C9B",
"W 	c #D44294",
"X 	c #CA3B8C",
"Y 	c #C43889",
"Z 	c #C43988",
"` 	c #C53289",
" .	c #C12B82",
"..	c #C32A82",
"+.	c #D3569B",
"@.	c #DDEDE4",
"#.	c #522E45",
"$.	c #8B3261",
"%.	c #B6357F",
"&.	c #C33284",
"*.	c #C03281",
"=.	c #BD347D",
"-.	c #C13383",
";.	c #C23584",
">.	c #C53A85",
",.	c #C93988",
"'.	c #C13A88",
").	c #C33F89",
"!.	c #B73D82",
"~.	c #C0ACA9",
"{.	c #8B8679",
"].	c #F0F5F7",
"^.	c #FEFFF4",
"/.	c #E06EAB",
"(.	c #E555A6",
"_.	c #D33C91",
":.	c #D33D91",
"<.	c #D03A8D",
"[.	c #D43B91",
"}.	c #D83790",
"|.	c #E6A7C5",
"1.	c #A9B6AC",
"2.	c #D1DED4",
"3.	c #573C50",
"4.	c #BE3C84",
"5.	c #C73688",
"6.	c #C83083",
"7.	c #C23481",
"8.	c #C22F80",
"9.	c #C1347F",
"0.	c #C33582",
"a.	c #C53987",
"b.	c #C63986",
"c.	c #C63D89",
"d.	c #C23D87",
"e.	c #C3408B",
"f.	c #8F3565",
"g.	c #CCCCBA",
"h.	c #ADADA6",
"i.	c #FCFFFA",
"j.	c #DC6BA9",
"k.	c #DD4D9F",
"l.	c #D2398D",
"m.	c #D53890",
"n.	c #D4378D",
"o.	c #83596E",
"p.	c #5E2446",
"q.	c #AA3A79",
"r.	c #AE3678",
"s.	c #9C3F74",
"t.	c #A25682",
"u.	c #CF5097",
"v.	c #C83785",
"w.	c #C23385",
"x.	c #C13582",
"y.	c #BF3481",
"z.	c #BF317F",
"A.	c #BE3480",
"B.	c #C43885",
"C.	c #C33884",
"D.	c #C23A86",
"E.	c #C13984",
"F.	c #C43A87",
"G.	c #BE4386",
"H.	c #B5357D",
"I.	c #948589",
"J.	c #837D73",
"K.	c #FDFFF5",
"L.	c #D665A2",
"M.	c #DD4C9E",
"N.	c #CE398B",
"O.	c #D2388C",
"P.	c #CF398B",
"Q.	c #CD388A",
"R.	c #D2388B",
"S.	c #D4318B",
"T.	c #D76AA4",
"U.	c #FFE0F3",
"V.	c #AAB0AD",
"W.	c #6F5865",
"X.	c #66324F",
"Y.	c #C13983",
"Z.	c #BC337E",
"`.	c #BC347E",
" +	c #BD327F",
".+	c #BD347F",
"++	c #BF3783",
"@+	c #C23982",
"#+	c #C13A84",
"$+	c #C13D86",
"%+	c #C33C86",
"&+	c #BD4085",
"*+	c #C63588",
"=+	c #824B6C",
"-+	c #B19899",
";+	c #EDF1F2",
">+	c #D965A4",
",+	c #DB4B9C",
"'+	c #CE388B",
")+	c #D3368A",
"!+	c #D23489",
"~+	c #D03287",
"{+	c #CA2780",
"]+	c #ECC7D8",
"^+	c #DAD9DB",
"/+	c #503044",
"(+	c #92406D",
"_+	c #C03680",
":+	c #C33784",
"<+	c #C03482",
"[+	c #BB317E",
"}+	c #BD3680",
"|+	c #BC337D",
"1+	c #BC3680",
"2+	c #C53D88",
"3+	c #C03983",
"4+	c #C23D86",
"5+	c #BE3982",
"6+	c #C6418B",
"7+	c #7B2F5A",
"8+	c #B1A098",
"9+	c #B9BCBB",
"0+	c #FEFFF7",
"a+	c #D25896",
"b+	c #D84698",
"c+	c #C93585",
"d+	c #EFA6CD",
"e+	c #F6BBDC",
"f+	c #EEBED7",
"g+	c #F4DFEA",
"h+	c #E5E6E4",
"i+	c #5E2D46",
"j+	c #BD3880",
"k+	c #C93684",
"l+	c #CC3787",
"m+	c #C73783",
"n+	c #C23582",
"o+	c #BD337E",
"p+	c #BB337D",
"q+	c #B5327C",
"r+	c #BD3780",
"s+	c #BF3A85",
"t+	c #BE3882",
"u+	c #BE3F84",
"v+	c #C13982",
"w+	c #8C3063",
"x+	c #A8A59E",
"y+	c #B1ACAD",
"z+	c #FAFFF2",
"A+	c #D15193",
"B+	c #DD8FB7",
"C+	c #9C9C99",
"D+	c #6E5562",
"E+	c #68334D",
"F+	c #A28494",
"G+	c #ECF3EC",
"H+	c #837673",
"I+	c #AE3574",
"J+	c #C42E7B",
"K+	c #C5377E",
"L+	c #C4337F",
"M+	c #BD337C",
"N+	c #B8337B",
"O+	c #B72F7B",
"P+	c #B6317B",
"Q+	c #B7337A",
"R+	c #BB337C",
"S+	c #C03781",
"T+	c #C33983",
"U+	c #BF3680",
"V+	c #C03D86",
"W+	c #C13881",
"X+	c #C03A82",
"Y+	c #96326B",
"Z+	c #A39F94",
"`+	c #B3AEAE",
" @	c #FDFDEE",
".@	c #D05894",
"+@	c #842A58",
"@@	c #9C2E66",
"#@	c #CA2678",
"$@	c #C8237A",
"%@	c #B71E6D",
"&@	c #7B3B54",
"*@	c #C72577",
"=@	c #C42877",
"-@	c #C22575",
";@	c #C12A78",
">@	c #B92C76",
",@	c #BA2E76",
"'@	c #B83079",
")@	c #B62C77",
"!@	c #B62C75",
"~@	c #B73078",
"{@	c #BB307A",
"]@	c #B93279",
"^@	c #C3327D",
"/@	c #BC347A",
"(@	c #C03580",
"_@	c #BF3C85",
":@	c #C03982",
"<@	c #C13A83",
"[@	c #93366B",
"}@	c #A58F90",
"|@	c #B3AFAF",
"1@	c #FCFCEF",
"2@	c #CB518D",
"3@	c #C73280",
"4@	c #BF2371",
"5@	c #BF2074",
"6@	c #B9226E",
"7@	c #BA236E",
"8@	c #BA236F",
"9@	c #BD2370",
"0@	c #BA2471",
"a@	c #BA2370",
"b@	c #C12372",
"c@	c #B6266F",
"d@	c #BD2673",
"e@	c #BA2772",
"f@	c #B72773",
"g@	c #B42B72",
"h@	c #B12A72",
"i@	c #B32A72",
"j@	c #B82B73",
"k@	c #BA2C75",
"l@	c #B93077",
"m@	c #BC3079",
"n@	c #BC357A",
"o@	c #BB3178",
"p@	c #BC367A",
"q@	c #953269",
"r@	c #9E9789",
"s@	c #B5B1B1",
"t@	c #FDFFF3",
"u@	c #CB548E",
"v@	c #C5377F",
"w@	c #B92571",
"x@	c #BD2470",
"y@	c #C01F74",
"z@	c #B92774",
"A@	c #B62470",
"B@	c #B82671",
"C@	c #B51667",
"D@	c #B01567",
"E@	c #B61A6A",
"F@	c #B6206C",
"G@	c #BD3C7F",
"H@	c #B94A80",
"I@	c #C2498A",
"J@	c #C45891",
"K@	c #C85994",
"L@	c #CE669C",
"M@	c #CD6A9E",
"N@	c #CB5F96",
"O@	c #D15E96",
"P@	c #C84B87",
"Q@	c #C2387D",
"R@	c #C32876",
"S@	c #BD2D77",
"T@	c #923064",
"U@	c #9E978E",
"V@	c #B3B0B0",
"W@	c #F9FEEF",
"X@	c #CE5996",
"Y@	c #CC3C8A",
"Z@	c #C12F7F",
"`@	c #C82C80",
" #	c #C72C7E",
".#	c #C42F7C",
"+#	c #BF307B",
"@#	c #BE1D75",
"##	c #FDFFFE",
"$#	c #FFFFED",
"%#	c #F9F8E1",
"&#	c #EAE8D3",
"*#	c #D0CDB7",
"=#	c #A49E89",
"-#	c #919282",
";#	c #6D6C61",
">#	c #575C56",
",#	c #464F4D",
"'#	c #7F9394",
")#	c #BBDCE3",
"!#	c #9897A4",
"~#	c #BD3179",
"{#	c #90366B",
"]#	c #9E8F88",
"^#	c #B6B2B1",
"/#	c #FCFCEE",
"(#	c #D463A0",
"_#	c #D24997",
":#	c #CD398C",
"<#	c #CC3887",
"[#	c #D4368B",
"}#	c #C73885",
"|#	c #BC2778",
"1#	c #FFFFFA",
"2#	c #FFFFEA",
"3#	c #E9DFC4",
"4#	c #D2CCB3",
"5#	c #ABA491",
"6#	c #766D60",
"7#	c #70685D",
"8#	c #504D49",
"9#	c #464542",
"0#	c #545855",
"a#	c #869699",
"b#	c #D8F1FC",
"c#	c #A6A6B3",
"d#	c #BD2D78",
"e#	c #933267",
"f#	c #A1908C",
"g#	c #F7FFF0",
"h#	c #D4629D",
"i#	c #D84B9A",
"j#	c #CC3C8C",
"k#	c #CD3687",
"l#	c #C63885",
"m#	c #C43784",
"n#	c #C5307E",
"o#	c #D2B5C0",
"p#	c #CBC8BE",
"q#	c #C9C7BE",
"r#	c #C4BFAC",
"s#	c #C0B6A0",
"t#	c #A9A290",
"u#	c #92887E",
"v#	c #797267",
"w#	c #5D5852",
"x#	c #48423B",
"y#	c #3E3A35",
"z#	c #2E2D2A",
"A#	c #3B3631",
"B#	c #404342",
"C#	c #757F81",
"D#	c #9CABB1",
"E#	c #96728C",
"F#	c #BD357D",
"G#	c #933469",
"H#	c #A2938C",
"I#	c #B6AFAF",
"J#	c #FAFEEF",
"K#	c #D466A1",
"L#	c #CB3C8B",
"M#	c #CD3888",
"N#	c #CA3886",
"O#	c #C63A86",
"P#	c #BF2779",
"Q#	c #FFFDFF",
"R#	c #F6F8F8",
"S#	c #EAEEEA",
"T#	c #DEDFDB",
"U#	c #D6D9CE",
"V#	c #CDC7B8",
"W#	c #C3BAAC",
"X#	c #969285",
"Y#	c #8C877A",
"Z#	c #6C6A63",
"`#	c #5A5C58",
" $	c #5A5C59",
".$	c #7C898A",
"+$	c #B8CFD7",
"@$	c #9DA2AC",
"#$	c #C0347F",
"$$	c #933266",
"%$	c #9D988D",
"&$	c #B4AFAF",
"*$	c #F9FAEE",
"=$	c #D3619D",
"-$	c #D34C99",
";$	c #CC3C8D",
">$	c #CC3989",
",$	c #CE3587",
"'$	c #C73883",
")$	c #C12A7B",
"!$	c #FEFFFF",
"~$	c #FFFEE8",
"{$	c #F0E6CA",
"]$	c #D7CFB6",
"^$	c #B0A997",
"/$	c #7A7266",
"($	c #72685A",
"_$	c #56504A",
":$	c #3F3D39",
"<$	c #4D504E",
"[$	c #8C9394",
"}$	c #D1EAF3",
"|$	c #A1A0AD",
"1$	c #8F3167",
"2$	c #A28C92",
"3$	c #B2AFAE",
"4$	c #F9FBEE",
"5$	c #CF629C",
"6$	c #D34A97",
"7$	c #C93A89",
"8$	c #CB3887",
"9$	c #C83685",
"0$	c #C02F7F",
"a$	c #E6C6D1",
"b$	c #E1DED3",
"c$	c #FBF5DC",
"d$	c #FFF7D9",
"e$	c #F3E5C7",
"f$	c #D6CDB4",
"g$	c #BDB6A0",
"h$	c #A39D8B",
"i$	c #8D8678",
"j$	c #6F6659",
"k$	c #5E5248",
"l$	c #3E3832",
"m$	c #393633",
"n$	c #3D3E3B",
"o$	c #7C8C91",
"p$	c #A9BDC5",
"q$	c #726F78",
"r$	c #8E3666",
"s$	c #88325F",
"t$	c #9E8E8D",
"u$	c #B1AEAB",
"v$	c #F6F8EA",
"w$	c #CC5C96",
"x$	c #CC4792",
"y$	c #C23183",
"z$	c #C23380",
"A$	c #C22F81",
"B$	c #BE2F80",
"C$	c #B8337C",
"D$	c #BA2576",
"E$	c #FDFEFF",
"F$	c #D8D4D3",
"G$	c #BDBCBA",
"H$	c #B4B2AF",
"I$	c #AFABA8",
"J$	c #9A9A99",
"K$	c #83857D",
"L$	c #76766D",
"M$	c #605D54",
"N$	c #5B5850",
"O$	c #3E3E3B",
"P$	c #4B4C47",
"Q$	c #5B5E5D",
"R$	c #6C7678",
"S$	c #A9B7BB",
"T$	c #919EA6",
"U$	c #68324F",
"V$	c #582F45",
"W$	c #968989",
"X$	c #B0A9AC",
"Y$	c #F7F5EA",
"Z$	c #B46D8D",
"`$	c #C53D87",
" %	c #BE3081",
".%	c #B52774",
"+%	c #B82773",
"@%	c #B02873",
"#%	c #B32873",
"$%	c #AE1A6A",
"%%	c #FCF7F9",
"&%	c #FFFFF4",
"*%	c #FDFAE8",
"=%	c #F7EFD4",
"-%	c #E0DAC6",
";%	c #C8BFA7",
">%	c #8F8678",
",%	c #827C6F",
"'%	c #625D54",
")%	c #44413D",
"!%	c #454442",
"~%	c #7E8C90",
"{%	c #CAE0E9",
"]%	c #868C96",
"^%	c #5E2846",
"/%	c #592D42",
"(%	c #807A70",
"_%	c #ABA9A7",
":%	c #FFFEF3",
"<%	c #AE5C88",
"[%	c #BD3481",
"}%	c #AF2772",
"|%	c #AF1F6C",
"1%	c #B11E6B",
"2%	c #AA1B68",
"3%	c #AB216C",
"4%	c #A71564",
"5%	c #EDCFDB",
"6%	c #F2EFE1",
"7%	c #FFFFEE",
"8%	c #FBF0D3",
"9%	c #EEE1C4",
"0%	c #CFC5AF",
"a%	c #BAB39F",
"b%	c #A49E8C",
"c%	c #8A8275",
"d%	c #706759",
"e%	c #655C4F",
"f%	c #463C33",
"g%	c #3A3530",
"h%	c #393934",
"i%	c #778389",
"j%	c #A6BCC5",
"k%	c #6F6672",
"l%	c #572842",
"m%	c #542A3E",
"n%	c #88767C",
"o%	c #A6A5A3",
"p%	c #A99193",
"q%	c #B32774",
"r%	c #B52D79",
"s%	c #A71B67",
"t%	c #AA1C68",
"u%	c #A41A65",
"v%	c #A1105F",
"w%	c #FAF3F3",
"x%	c #F9FAFC",
"y%	c #C5C0C0",
"z%	c #CAC8BB",
"A%	c #B6B1A0",
"B%	c #938C7C",
"C%	c #7B7566",
"D%	c #646054",
"E%	c #54534C",
"F%	c #423C37",
"G%	c #31302E",
"H%	c #39342F",
"I%	c #48423A",
"J%	c #575752",
"K%	c #6A7476",
"L%	c #9DAFB4",
"M%	c #90929F",
"N%	c #522039",
"O%	c #582640",
"P%	c #7A746E",
"Q%	c #A2A3A2",
"R%	c #CECFC3",
"S%	c #B22E76",
"T%	c #A9296F",
"U%	c #AB1F6D",
"V%	c #A51965",
"W%	c #A01963",
"X%	c #A11964",
"Y%	c #9B105D",
"Z%	c #F8D9E7",
"`%	c #FEFFFA",
" &	c #FFFFF0",
".&	c #FFFDEC",
"+&	c #FBF7EC",
"@&	c #F4F0E5",
"#&	c #E1E0CC",
"$&	c #BBB6A5",
"%&	c #ADA490",
"&&	c #6D6B64",
"*&	c #555451",
"=&	c #434645",
"-&	c #788283",
";&	c #B4C7CF",
">&	c #7D858D",
",&	c #4E1D39",
"'&	c #542140",
")&	c #797472",
"!&	c #A2A1A0",
"~&	c #EEEAE8",
"{&	c #A78C8E",
"]&	c #A41967",
"^&	c #AD2672",
"/&	c #A11863",
"(&	c #A01561",
"_&	c #9A155E",
":&	c #9E1560",
"<&	c #AD467C",
"[&	c #F1FBE6",
"}&	c #FBF4D9",
"|&	c #ECDFC3",
"1&	c #D8CFB6",
"2&	c #C4BBA7",
"3&	c #A6A191",
"4&	c #90887A",
"5&	c #787166",
"6&	c #685F52",
"7&	c #51483F",
"8&	c #393430",
"9&	c #3A3A38",
"0&	c #6C797D",
"a&	c #99B3B8",
"b&	c #5A3D52",
"c&	c #4C1D38",
"d&	c #4E243D",
"e&	c #757074",
"f&	c #A2A2A0",
"g&	c #BEB7AD",
"h&	c #A88A8E",
"i&	c #A31B68",
"j&	c #AD2872",
"k&	c #9F1963",
"l&	c #9D135F",
"m&	c #9E1460",
"n&	c #9B1960",
"o&	c #970556",
"p&	c #954C6F",
"q&	c #BD868F",
"r&	c #A9A192",
"s&	c #B3B49B",
"t&	c #A9A790",
"u&	c #999481",
"v&	c #817B6E",
"w&	c #615F53",
"x&	c #393B33",
"y&	c #303029",
"z&	c #403E3B",
"A&	c #484342",
"B&	c #594755",
"C&	c #491934",
"D&	c #4E223C",
"E&	c #74716D",
"F&	c #A3A3A0",
"G&	c #B4ABA3",
"H&	c #A49D90",
"I&	c #873865",
"J&	c #A61D6B",
"K&	c #AB2972",
"L&	c #A7206A",
"M&	c #A52069",
"N&	c #A41E68",
"O&	c #A41A64",
"P&	c #A21662",
"Q&	c #9E0E5C",
"R&	c #990C5A",
"S&	c #880D53",
"T&	c #811C52",
"U&	c #7C1A50",
"V&	c #7C1D52",
"W&	c #861F5A",
"X&	c #76234C",
"Y&	c #4E1A38",
"Z&	c #4C1A36",
"`&	c #481B35",
" *	c #4D1E39",
".*	c #4B223B",
"+*	c #77726E",
"@*	c #A1A0A0",
"#*	c #D2D2CF",
"$*	c #9F9D91",
"%*	c #898D78",
"&*	c #7A5C68",
"**	c #7C435F",
"=*	c #7A3F5A",
"-*	c #7D335F",
";*	c #872D5F",
">*	c #8C2B62",
",*	c #942864",
"'*	c #9E2769",
")*	c #A5286B",
"!*	c #A6296E",
"~*	c #A01E65",
"{*	c #9E1E65",
"]*	c #8D205D",
"^*	c #52253E",
"/*	c #55233F",
"(*	c #56233F",
"_*	c #501937",
":*	c #4D1A37",
"<*	c #4E1936",
"[*	c #4F1E3A",
"}*	c #71736E",
"|*	c #A3A2A0",
"1*	c #BAB6B2",
"2*	c #C1BCB5",
"3*	c #95918F",
"4*	c #776E63",
"5*	c #6E625F",
"6*	c #766F64",
"7*	c #81766F",
"8*	c #7D776E",
"9*	c #6F5E67",
"0*	c #645157",
"a*	c #654B55",
"b*	c #6A485A",
"c*	c #75415D",
"d*	c #793D5B",
"e*	c #523146",
"f*	c #542E46",
"g*	c #543248",
"h*	c #572A44",
"i*	c #582E47",
"j*	c #553349",
"k*	c #582D46",
"l*	c #71716B",
"m*	c #A6A4A2",
"n*	c #E8EAEB",
"o*	c #CCC9C8",
"p*	c #B0B4B4",
"q*	c #B7B2B0",
"r*	c #BEB9B9",
"s*	c #ADA8A0",
"t*	c #89817A",
"u*	c #716A61",
"v*	c #6E625C",
"w*	c #62585A",
"x*	c #615A55",
"y*	c #696057",
"z*	c #5C5C56",
"A*	c #53484D",
"B*	c #5D474F",
"C*	c #726E66",
"D*	c #A3A3A2",
"E*	c #E2E9E8",
"F*	c #BCBFC0",
"G*	c #A4A4A3",
"H*	c #A0A09E",
"I*	c #9C9A97",
"J*	c #80817F",
"K*	c #B2B5B4",
". . . . . . . . . . . . . . . . . + @ # $ % & * . . . . . . . . ",
". . . . . . . = - ; > , ' ) ! ~ { ] ^ / ( _ : < [ } | . . . . . ",
". 1 . 2 3 4 5 6 7 8 9 0 a b c d e f g h i j k l m n o p . . . . ",
". q r s t u v w x y z A B C D E F G H I J K L M N O P Q R . . . ",
". S T U V W X Y Z `  ...+.@.#.$.%.&.*.=.-.;.>.,.'.).!.~.{.].. . ",
". ^./.(._.:.<.[.}.|.1.2.. 3.4.5.6.-.7.8.9.0.a.b.c.d.e.f.g.h.. . ",
". i.j.k.l.l.m.n.o.p.q.r.s.t.u.v.w.x.y.z.A.B.C.D.E.F.G.H.I.J.. . ",
". K.L.M.N.O.P.Q.R.S.T.U.V.W.X.Y.y.Z.`. +.+++@+#+$+%+&+*+=+-+;+. ",
". K.>+,+'+)+!+~+{+]+^+/+(+_+,.:+<+ +[+}+|+1+#+2+3+4+5+6+7+8+9+. ",
". 0+a+b+c+d+e+f+g+h+i+j+k+l+m+n+A.o+p+p+q+r+s+t+4+u+4+v+w+x+y+. ",
". z+A+B+C+D+E+F+G+H+I+J+K+K+L+M+N+O+P+Q+R+_+S+T+U+V+W+X+Y+Z+`+. ",
".  @.@+@@@#@$@$@%@&@*@=@-@;@>@,@'@)@!@~@{@]@^@/@(@_@:@<@[@}@|@. ",
". 1@2@3@4@5@6@7@8@9@0@a@b@c@d@e@f@g@h@g@i@j@k@l@m@n@o@p@q@r@s@. ",
". t@u@v@w@x@y@z@A@B@C@D@E@F@R+G@H@I@J@K@L@M@N@O@P@Q@R@S@T@U@V@. ",
". W@X@Y@Z@`@ #.#+#@###. . . + $#%#&#*#=#-#;#>#,#'#)#!#~#{#]#^#. ",
". /#(#_#:#<#[#}#b.|#. . . . 1#2#3#4#5#6#7#8#9#0#a#b#c#d#e#f#s@. ",
". g#h#i#j#v.k#l#m#n#o#p#q#r#s#t#u#v#w#x#y#z#A#B#C#D#E#F#G#H#I#. ",
". J#K#i#L#M#N#v.O#P#. . Q#R#S#T#U#V#W#X#Y#Z#`# $.$+$@$#$$$%$&$. ",
". *$=$-$;$>$,$2+'$)$!$. . . - ~${$]$^$/$($_$:$<$[$}$|$]@1$2$3$. ",
". 4$5$6$7$8$9$C.m#0$a$b$c$d$e$f$g$h$i$j$k$l$m$n$o$p$q$r$s$t$u$. ",
". v$w$x$y$z$A$B$C$D$. E$F$G$H$I$J$K$L$M$N$O$P$Q$R$S$T$U$V$W$X$. ",
". Y$Z$`$ %.%+%@%#%$%%%. = &%&%*%=%-%;%>%,%'%)%!%~%{%]%^%/%(%_%. ",
". :%<%[%}%|%1%2%3%4%5%6%7%8%9%0%a%b%c%d%e%f%g%h%i%j%k%l%m%n%o%. ",
". . p%q%r%2%s%t%u%v%w%x%y%z%A%B%C%D%E%F%G%H%I%J%K%L%M%N%O%P%Q%. ",
". . R%S%T%U%V%W%X%Y%Z%. `% &&%.&+&@&#&$&%&&&*&=&-&;&>&,&'&)&!&. ",
". . ~&{&]&^&/&(&_&:&<&[&$#}&|&1&2&3&4&5&6&7&8&9&0&a&b&c&d&e&f&. ",
". . . g&h&i&j&k&l&m&n&o&p&q&r&s&t&u&v&w&x&y&z&A&B&C&c&c&D&E&F&. ",
". . . . G&H&I&J&K&L&M&N&O&P&Q&R&S&T&U&V&W&X&Y&Z&c&c&`& *.*+*@*. ",
". . . . . #*$*%*&***=*-*;*>*,*'*)*!*!*~*{*]*^*/*(*_*:*<*[*}*|*. ",
". . . . . . . ^+1*2*3*4*5*6*7*8*9*0*a*b*c*d*e*f*g*h*i*j*k*l*m*. ",
". . . . . . . . . . . . . . n*o*p*q*r*s*t*u*v*w*x*y*z*A*B*C*D*. ",
". . . . . . . . . . . . . . . . . . . . . . . . E*F*G*H*I*J*K*. "};
