/* XPM */
static char * connect_xpm[] = {
"32 32 537 2",
"  	c #FFFFFF",
". 	c #F2F1EF",
"+ 	c #989B9C",
"@ 	c #5C5956",
"# 	c #2D2927",
"$ 	c #100A09",
"% 	c #000000",
"& 	c #110909",
"* 	c #2B2826",
"= 	c #5B5855",
"- 	c #979A9B",
"; 	c #F0F0EE",
"> 	c #C8C8C9",
", 	c #434141",
"' 	c #07293F",
") 	c #0A557B",
"! 	c #0974A7",
"~ 	c #0A8DC2",
"{ 	c #089BCF",
"] 	c #069DD0",
"^ 	c #0890C3",
"/ 	c #09557B",
"( 	c #072A40",
"_ 	c #403F3E",
": 	c #C7C7C7",
"< 	c #EDEEEE",
"[ 	c #454343",
"} 	c #000108",
"| 	c #0B496B",
"1 	c #0C76AF",
"2 	c #057BB9",
"3 	c #0480B9",
"4 	c #0887BF",
"5 	c #0A8CC6",
"6 	c #0C92CA",
"7 	c #0B8CC6",
"8 	c #0787BC",
"9 	c #087FB8",
"0 	c #047BB5",
"a 	c #0D76B1",
"b 	c #0C466C",
"c 	c #000109",
"d 	c #434244",
"e 	c #EBEEED",
"f 	c #BBBBBB",
"g 	c #040002",
"h 	c #0B3756",
"i 	c #0A6DA8",
"j 	c #056EAA",
"k 	c #0D7FB3",
"l 	c #178CBE",
"m 	c #1E93C6",
"n 	c #2190C5",
"o 	c #1E90C2",
"p 	c #208DC1",
"q 	c #1F8CC0",
"r 	c #218ABF",
"s 	c #1E89BC",
"t 	c #1B87BB",
"u 	c #1581B4",
"v 	c #0E77B0",
"w 	c #036DA6",
"x 	c #0B6AA3",
"y 	c #0B3557",
"z 	c #040000",
"A 	c #B9B9B8",
"B 	c #A3A0A1",
"C 	c #000003",
"D 	c #0E5281",
"E 	c #0765A5",
"F 	c #117CB2",
"G 	c #1F93C7",
"H 	c #2294C5",
"I 	c #2193C5",
"J 	c #2090C2",
"K 	c #1F8FC2",
"L 	c #228CC0",
"M 	c #208BBF",
"N 	c #1F89BD",
"O 	c #1E88BC",
"P 	c #1E86BB",
"Q 	c #1D82B6",
"R 	c #1C81B5",
"S 	c #1C7FB6",
"T 	c #1070A7",
"U 	c #085EA2",
"V 	c #0E4F7F",
"W 	c #000004",
"X 	c #A09D9C",
"Y 	c #ACACAC",
"Z 	c #0D558B",
"` 	c #0C63A1",
" .	c #1E8EC1",
"..	c #2296C9",
"+.	c #2194C7",
"@.	c #2090C1",
"#.	c #1E8EC0",
"$.	c #208BBE",
"%.	c #1D88BC",
"&.	c #1D86BA",
"*.	c #1E85BA",
"=.	c #1B83B8",
"-.	c #1B80B4",
";.	c #1A7DB4",
">.	c #1D7BB4",
",.	c #1778AB",
"'.	c #0F5C98",
").	c #105083",
"!.	c #ABABAB",
"~.	c #DEDCDB",
"{.	c #0E4E7F",
"].	c #0D69A2",
"^.	c #2398C9",
"/.	c #2195C6",
"(.	c #2093C5",
"_.	c #208FC2",
":.	c #208FC1",
"<.	c #2094C8",
"[.	c #2497CA",
"}.	c #249ACD",
"|.	c #279ED0",
"1.	c #259CCE",
"2.	c #249BCD",
"3.	c #2195C8",
"4.	c #218CC2",
"5.	c #1A81B4",
"6.	c #1B7DB1",
"7.	c #1B7CB1",
"8.	c #1A7BB0",
"9.	c #1B79B0",
"0.	c #1A78AE",
"a.	c #0B5E98",
"b.	c #11477B",
"c.	c #DBDCDA",
"d.	c #242322",
"e.	c #0E3861",
"f.	c #0C68A2",
"g.	c #2598C8",
"h.	c #2094C5",
"i.	c #2192C5",
"j.	c #2099C8",
"k.	c #269ECD",
"l.	c #22A0D0",
"m.	c #229FD0",
"n.	c #249FD0",
"o.	c #239FD0",
"p.	c #269ED0",
"q.	c #2092C6",
"r.	c #187EB2",
"s.	c #1C78AF",
"t.	c #1876AC",
"u.	c #1B76AC",
"v.	c #0B5A96",
"w.	c #0D355A",
"x.	c #252222",
"y.	c #9E9E9E",
"z.	c #03101B",
"A.	c #0E5B9B",
"B.	c #2399C9",
"C.	c #2092C5",
"D.	c #1F95C5",
"E.	c #259BCB",
"F.	c #239CCB",
"G.	c #249CCB",
"H.	c #239BCB",
"I.	c #1E82B9",
"J.	c #1775AB",
"K.	c #1974AB",
"L.	c #1B72AA",
"M.	c #0E5295",
"N.	c #030E19",
"O.	c #9F9F9F",
"P.	c #171614",
"Q.	c #0C3F71",
"R.	c #1D8EC0",
"S.	c #2299C9",
"T.	c #2497C8",
"U.	c #2397C8",
"V.	c #1D94C6",
"W.	c #2498C8",
"X.	c #2398C8",
"Y.	c #2399CA",
"Z.	c #1F87B9",
"`.	c #1872A9",
" +	c #1A70A9",
".+	c #186EA7",
"++	c #146AA1",
"@+	c #0F3A6B",
"#+	c #181615",
"$+	c #C8C7C8",
"%+	c #000310",
"&+	c #166EAB",
"*+	c #2098C7",
"=+	c #1F93C4",
"-+	c #2296C7",
";+	c #2096C6",
">+	c #1E96C6",
",+	c #69B4D3",
"'+	c #CAE6EB",
")+	c #88C5DC",
"!+	c #1F91C4",
"~+	c #1E97C7",
"{+	c #2196C6",
"]+	c #2097C7",
"^+	c #1D81B8",
"/+	c #186EA6",
"(+	c #166EA6",
"_+	c #176DA4",
":+	c #105A97",
"<+	c #00010D",
"[+	c #CACACA",
"}+	c #757374",
"|+	c #082645",
"1+	c #2190C4",
"2+	c #2393C5",
"3+	c #1F91C3",
"4+	c #1F94C4",
"5+	c #2193C4",
"6+	c #1C8DC2",
"7+	c #FDFFFC",
"8+	c #FEFEFD",
"9+	c #EDF8F8",
"0+	c #65B1D1",
"a+	c #188DC1",
"b+	c #2293C4",
"c+	c #2295C6",
"d+	c #1773A9",
"e+	c #196BA5",
"f+	c #156AA1",
"g+	c #1668A1",
"h+	c #072341",
"i+	c #777674",
"j+	c #3B3B39",
"k+	c #124F7C",
"l+	c #2295C7",
"m+	c #2191C3",
"n+	c #2091C3",
"o+	c #1F91C2",
"p+	c #2D93C2",
"q+	c #D0E5EB",
"r+	c #419EC7",
"s+	c #1D8DBF",
"t+	c #15699F",
"u+	c #1769A1",
"v+	c #1568A0",
"w+	c #0E3E6D",
"x+	c #403D3B",
"y+	c #171314",
"z+	c #1975A5",
"A+	c #1F8FC1",
"B+	c #1D8EBF",
"C+	c #1F8CBF",
"D+	c #208CBF",
"E+	c #2A90C0",
"F+	c #FDFDFE",
"G+	c #FFFFFE",
"H+	c #A8D2E0",
"I+	c #2490BF",
"J+	c #1E8CC0",
"K+	c #1F8EC0",
"L+	c #1770A4",
"M+	c #15679F",
"N+	c #14669E",
"O+	c #15538B",
"P+	c #191617",
"Q+	c #1D8ABF",
"R+	c #2090C3",
"S+	c #1E8ABE",
"T+	c #1D8ABE",
"U+	c #2D8CBD",
"V+	c #FAFDFD",
"W+	c #82BCD4",
"X+	c #1A83B9",
"Y+	c #1F8ABB",
"Z+	c #1C8BBA",
"`+	c #1B7AB1",
" @	c #16649E",
".@	c #15659D",
"+@	c #13609A",
"@@	c #050301",
"#@	c #2193C7",
"$@	c #1E86BA",
"%@	c #2B8ABC",
"&@	c #FEFFFE",
"*@	c #E5F2F2",
"=@	c #4B9CC1",
"-@	c #1A86BD",
";@	c #1D86BB",
">@	c #1E85BB",
",@	c #1C80B6",
"'@	c #15649D",
")@	c #13629B",
"!@	c #17649C",
"~@	c #010000",
"{@	c #2295C8",
"]@	c #218CC1",
"^@	c #1B83B6",
"/@	c #1C84B6",
"(@	c #2A85B6",
"_@	c #2B86BA",
":@	c #1C83B6",
"<@	c #1C84B7",
"[@	c #1C80B4",
"}@	c #15609A",
"|@	c #14609A",
"1@	c #1763A0",
"2@	c #020000",
"3@	c #060001",
"4@	c #2391C6",
"5@	c #208BC0",
"6@	c #1A7FB2",
"7@	c #1C80B3",
"8@	c #2884B4",
"9@	c #2D86B7",
"0@	c #1B80B3",
"a@	c #1B7FB4",
"b@	c #1F7DB4",
"c@	c #14609D",
"d@	c #030100",
"e@	c #181313",
"f@	c #1F86B5",
"g@	c #2089BC",
"h@	c #197CB0",
"i@	c #1C7AB0",
"j@	c #287FB1",
"k@	c #FAFBFB",
"l@	c #6295B6",
"m@	c #1779B1",
"n@	c #1A7CB0",
"o@	c #1C79AF",
"p@	c #145E98",
"q@	c #125D97",
"r@	c #15598F",
"s@	c #161212",
"t@	c #3F3A38",
"u@	c #1D6B94",
"v@	c #1D87BB",
"w@	c #187BB0",
"x@	c #1A79AF",
"y@	c #1C78AE",
"z@	c #267DAF",
"A@	c #9EBACE",
"B@	c #17689D",
"C@	c #1977B0",
"D@	c #1A78AF",
"E@	c #1B78AF",
"F@	c #1870A9",
"G@	c #115C96",
"H@	c #134875",
"I@	c #3D3A39",
"J@	c #747675",
"K@	c #134462",
"L@	c #1E87BC",
"M@	c #1A7CB1",
"N@	c #1A74AB",
"O@	c #1875AC",
"P@	c #1875AB",
"Q@	c #2678AC",
"R@	c #FEFFFB",
"S@	c #C6D8E0",
"T@	c #306DA0",
"U@	c #176BA6",
"V@	c #1967A2",
"W@	c #145A96",
"X@	c #135996",
"Y@	c #0E2E4A",
"Z@	c #747471",
"`@	c #C7C9C7",
" #	c #010B15",
".#	c #208BC2",
"+#	c #1D80B4",
"@#	c #1670A8",
"##	c #1970A9",
"$#	c #2476AA",
"%#	c #E8EFF2",
"&#	c #5281A9",
"*#	c #0C5D9C",
"=#	c #1773A8",
"-#	c #1970A8",
";#	c #1A71AA",
">#	c #135C9A",
",#	c #135995",
"'#	c #135B98",
")#	c #00060F",
"!#	c #C9C9C9",
"~#	c #161312",
"{#	c #1A6C94",
"]#	c #1D80B8",
"^#	c #1B81B5",
"/#	c #156DA5",
"(#	c #156DA6",
"_#	c #12669C",
":#	c #FEFFFF",
"<#	c #7C9BB9",
"[#	c #0D538C",
"}#	c #176EA8",
"|#	c #166DA6",
"1#	c #14679E",
"2#	c #145995",
"3#	c #115892",
"4#	c #104777",
"5#	c #181716",
"6#	c #051B22",
"7#	c #1F85BD",
"8#	c #197EB2",
"9#	c #1668A2",
"0#	c #1669A3",
"a#	c #1669A2",
"b#	c #1468A3",
"c#	c #7497B5",
"d#	c #E9EFEF",
"e#	c #A0B4CB",
"f#	c #19538A",
"g#	c #13659E",
"h#	c #146AA0",
"i#	c #1769A3",
"j#	c #125B95",
"k#	c #125793",
"l#	c #0F5B99",
"m#	c #040F1D",
"n#	c #A0A0A0",
"o#	c #23201F",
"p#	c #185477",
"q#	c #177EB4",
"r#	c #1A7BB2",
"s#	c #13649F",
"t#	c #14659D",
"u#	c #13669E",
"v#	c #145E99",
"w#	c #074989",
"x#	c #105B97",
"y#	c #15669E",
"z#	c #14659E",
"A#	c #15659E",
"B#	c #17659E",
"C#	c #115792",
"D#	c #105894",
"E#	c #103B60",
"F#	c #262423",
"G#	c #DBDBDA",
"H#	c #1B709C",
"I#	c #1D78B1",
"J#	c #1979AF",
"K#	c #196FA8",
"L#	c #15619A",
"M#	c #14619A",
"N#	c #13619B",
"O#	c #12629A",
"P#	c #13619A",
"Q#	c #15619B",
"R#	c #135D98",
"S#	c #125693",
"T#	c #164D7E",
"U#	c #DFDDDD",
"V#	c #000007",
"W#	c #1B719F",
"X#	c #1D73AF",
"Y#	c #1876A7",
"Z#	c #176FA7",
"`#	c #11609C",
" $	c #145D97",
".$	c #135D97",
"+$	c #145D98",
"@$	c #125E97",
"#$	c #165B98",
"$$	c #0F5990",
"%$	c #125796",
"&$	c #154E84",
"*$	c #AFB0AF",
"=$	c #9C9E9D",
"-$	c #000006",
";$	c #1A658F",
">$	c #1774AF",
",$	c #1870A8",
"'$	c #13679E",
")$	c #135C96",
"!$	c #125794",
"~$	c #135894",
"{$	c #135895",
"]$	c #135794",
"^$	c #105B95",
"/$	c #115793",
"($	c #125897",
"_$	c #184878",
":$	c #A2A1A0",
"<$	c #B7B8B7",
"[$	c #143F5A",
"}$	c #1A72AC",
"|$	c #186CA3",
"1$	c #166BA1",
"2$	c #1667A0",
"3$	c #135F99",
"4$	c #145C97",
"5$	c #125A95",
"6$	c #125C96",
"7$	c #115C97",
"8$	c #135A93",
"9$	c #135A95",
"0$	c #0C3050",
"a$	c #020101",
"b$	c #BDBCBC",
"c$	c #EAEDED",
"d$	c #134769",
"e$	c #1A6EA7",
"f$	c #196BA4",
"g$	c #13699F",
"h$	c #16669E",
"i$	c #12639C",
"j$	c #135B96",
"k$	c #155A92",
"l$	c #0F385F",
"m$	c #474543",
"n$	c #EEEEEE",
"o$	c #C5C5C4",
"p$	c #3E3D3C",
"q$	c #092437",
"r$	c #124268",
"s$	c #145689",
"t$	c #17629A",
"u$	c #1665A0",
"v$	c #17639F",
"w$	c #155D96",
"x$	c #125082",
"y$	c #0E3B60",
"z$	c #081D32",
"A$	c #444342",
"B$	c #CAC9C9",
"C$	c #EEEEF0",
"D$	c #969796",
"E$	c #575758",
"F$	c #2C2827",
"G$	c #0F0B09",
"H$	c #110B09",
"I$	c #2E2A27",
"J$	c #5A5959",
"K$	c #9B9B9B",
"L$	c #F0F2F2",
"                    . + @ # $ % % & * = - ;                     ",
"                > , % ' ) ! ~ { ] ^ ! / ( % _ :                 ",
"            < [ } | 1 2 3 4 5 6 6 7 8 9 0 a b c d e             ",
"          f g h i j k l m n o p q r s t u v w x y z A           ",
"        B C D E F G H I J K L M N O P P Q R S T U V W X         ",
"      Y W Z `  ...+.I o @.#.$.%.O &.*.=.R -.;.>.,.'.).W !.      ",
"    ~.% {.].^./.I (._.:.<.[.}.|.1.2.3.4.5.6.7.8.9.0.a.b.% c.    ",
"    d.e.f.g./.h.i.o j.k.l.m.n.o.o.o.m.l.p.q.r.s.0.t.u.v.w.x.    ",
"  y.z.A.B./.I C.D.E.F.F.G.G.F.F.F.F.G.G.F.F.H.I.J.K.L.L.M.N.O.  ",
"  P.Q.R./.h.i.I B.S.T.U.V.U.W.W.T.T.T.T.T.U.X.Y.Z.`. +.+++@+#+  ",
"$+%+&+*+I i.=+-+;+;+>+,+'+)+!+~+;+;+;+;+;+;+{+;+]+^+/+(+_+:+<+[+",
"}+|+1+2+I 3+h.4+5+5+6+7+8+  9+0+a+I I I 5+5+5+5+b+c+d+e+f+g+h+i+",
"j+k+l+I J m+3+n+3+o+p+          q+r+s+@.3+3+3+3+3+3+O t+u+v+w+x+",
"y+z+(.o A+B+C+D+D+C+E+          F+G+H+I+J+D+C+C+D+C+K+L+M+N+O+P+",
"z Q+R+A+S+S+T+T+T+T+U+              G+V+W+X+Y+Z+T+T+T+`+ @.@+@@@",
"% #@A+#.P P P P P $@%@                &@  *@=@-@P ;@>@,@'@)@!@~@",
"% {@]@M ^@/@/@/@/@/@(@                        _@:@/@<@[@}@|@1@2@",
"3@4@5@M 6@-.[@[@[@7@8@                        9@0@[@a@b@|@+@c@d@",
"e@f@g@N h@i@8.8.8.8.j@                  G+k@l@m@8.8.n@o@p@q@r@s@",
"t@u@O v@w@x@y@y@y@y@z@                  A@B@C@D@s.y@E@F@q@G@H@I@",
"J@K@L@P M@N@O@O@O@P@Q@          R@  S@T@U@t.P@P@O@O@O@V@W@X@Y@Z@",
"`@ #.#=.+#@#########$#          %#&#*#=#-###########;#>#,#'#)#!#",
"  ~#{#]#^#;#/#(#(#/#_#  :#    <#[#}#|#|#/#(#(#(#(#(#1#2#3#4#5#  ",
"  O.6#7#8#6.9#0#0#a#b#c#d#e#f#g#++h#0#0#0#0#0#0#0#i#j#k#l#m#n#  ",
"    o#p#q#r#K.s#t#.@u#v#w#x#y#z#.@A#t#t#t#t#t#t#B#q@C#D#E#F#    ",
"    G#% H#I#J#K#L#M#N#O#)@P#M#M#M#M#M#M#M#M#M#Q#R#S#D#T#% U#    ",
"      !.V#W#X#Y#Z#`# $.$+$R#+$+$+$+$+$+$q@@$#$,#$$%$&$W *$      ",
"        =$-$;$>$ +,$'$)$!$~${$~${$~$~$]$^$G@,#/$($_$C :$        ",
"          <$2@[$}$.+|$1$2$3$4$5$,#5$G@6$7$8$C#9$0$a$b$          ",
"            c$_ c d$e$f$g$h$z#i$|@+@q@G@j$k$l$-$m$n$            ",
"                o$p$% q$r$s$t$u$v$w$x$y$z$% A$B$                ",
"                    C$D$E$F$G$~@2@H$I$J$K$L$                    "};
