/* XPM */
static char * disconnect_xpm[] = {
"32 32 492 2",
"  	c #FFFFFF",
". 	c #F2F1EF",
"+ 	c #989B9C",
"@ 	c #5C5956",
"# 	c #2D2927",
"$ 	c #100A09",
"% 	c #000000",
"& 	c #110909",
"* 	c #2B2826",
"= 	c #5B5855",
"- 	c #979A9B",
"; 	c #F0F0EE",
"> 	c #C8C8C9",
", 	c #434141",
"' 	c #07293F",
") 	c #0A557B",
"! 	c #0974A7",
"~ 	c #0A8DC2",
"{ 	c #089BCF",
"] 	c #069DD0",
"^ 	c #0890C3",
"/ 	c #09557B",
"( 	c #072A40",
"_ 	c #403F3E",
": 	c #C7C7C7",
"< 	c #EDEEEE",
"[ 	c #454343",
"} 	c #000108",
"| 	c #0B496B",
"1 	c #0C76AF",
"2 	c #057BB9",
"3 	c #0480B9",
"4 	c #0887BF",
"5 	c #0A8CC6",
"6 	c #0C92CA",
"7 	c #0B8CC6",
"8 	c #0787BC",
"9 	c #087FB8",
"0 	c #047BB5",
"a 	c #0D76B1",
"b 	c #0C466C",
"c 	c #000109",
"d 	c #434244",
"e 	c #EBEEED",
"f 	c #BBBBBB",
"g 	c #040002",
"h 	c #0B3756",
"i 	c #0A6DA8",
"j 	c #056EAA",
"k 	c #0D7FB3",
"l 	c #178CBE",
"m 	c #1E93C6",
"n 	c #2190C5",
"o 	c #1E90C2",
"p 	c #208DC1",
"q 	c #1F8CC0",
"r 	c #218ABF",
"s 	c #1E89BC",
"t 	c #1B87BB",
"u 	c #1581B4",
"v 	c #0E77B0",
"w 	c #036DA6",
"x 	c #0B6AA3",
"y 	c #0B3557",
"z 	c #040000",
"A 	c #B9B9B8",
"B 	c #A3A0A1",
"C 	c #000003",
"D 	c #0E5281",
"E 	c #0765A5",
"F 	c #117CB2",
"G 	c #1F93C7",
"H 	c #2294C5",
"I 	c #2193C5",
"J 	c #2090C2",
"K 	c #1F8FC2",
"L 	c #228CC0",
"M 	c #208BBF",
"N 	c #1F89BD",
"O 	c #1E88BC",
"P 	c #1E86BB",
"Q 	c #1D82B6",
"R 	c #1C81B5",
"S 	c #1C7FB6",
"T 	c #1070A7",
"U 	c #085EA2",
"V 	c #0E4F7F",
"W 	c #000004",
"X 	c #A09D9C",
"Y 	c #ACACAC",
"Z 	c #0D558B",
"` 	c #0C63A1",
" .	c #1E8EC1",
"..	c #2296C9",
"+.	c #2194C7",
"@.	c #2090C1",
"#.	c #1E8EC0",
"$.	c #208BBE",
"%.	c #1D88BC",
"&.	c #1D86BA",
"*.	c #1E85BA",
"=.	c #1B83B8",
"-.	c #1B80B4",
";.	c #1A7DB4",
">.	c #1D7BB4",
",.	c #1778AB",
"'.	c #0F5C98",
").	c #105083",
"!.	c #ABABAB",
"~.	c #DEDCDB",
"{.	c #0E4E7F",
"].	c #0D69A2",
"^.	c #2398C9",
"/.	c #2195C6",
"(.	c #2093C5",
"_.	c #208FC2",
":.	c #208FC1",
"<.	c #2094C8",
"[.	c #2497CA",
"}.	c #249ACD",
"|.	c #279ED0",
"1.	c #259CCE",
"2.	c #249BCD",
"3.	c #2195C8",
"4.	c #218CC2",
"5.	c #1A81B4",
"6.	c #1B7DB1",
"7.	c #1B7CB1",
"8.	c #1A7BB0",
"9.	c #1B79B0",
"0.	c #1A78AE",
"a.	c #0B5E98",
"b.	c #11477B",
"c.	c #DBDCDA",
"d.	c #242322",
"e.	c #0E3861",
"f.	c #0C68A2",
"g.	c #2598C8",
"h.	c #2094C5",
"i.	c #2192C5",
"j.	c #2099C8",
"k.	c #269ECD",
"l.	c #22A0D0",
"m.	c #229FD0",
"n.	c #249FD0",
"o.	c #239FD0",
"p.	c #269ED0",
"q.	c #2092C6",
"r.	c #187EB2",
"s.	c #1C78AF",
"t.	c #1876AC",
"u.	c #1B76AC",
"v.	c #0B5A96",
"w.	c #0D355A",
"x.	c #252222",
"y.	c #9E9E9E",
"z.	c #03101B",
"A.	c #0E5B9B",
"B.	c #2399C9",
"C.	c #2092C5",
"D.	c #1F95C5",
"E.	c #259BCB",
"F.	c #239CCB",
"G.	c #249CCB",
"H.	c #239BCB",
"I.	c #1E82B9",
"J.	c #1775AB",
"K.	c #1974AB",
"L.	c #1B72AA",
"M.	c #0E5295",
"N.	c #030E19",
"O.	c #9F9F9F",
"P.	c #171614",
"Q.	c #0C3F71",
"R.	c #1D8EC0",
"S.	c #2299C9",
"T.	c #2497C8",
"U.	c #2498C8",
"V.	c #2397C8",
"W.	c #2398C8",
"X.	c #2399CA",
"Y.	c #1F87B9",
"Z.	c #1872A9",
"`.	c #1A70A9",
" +	c #186EA7",
".+	c #146AA1",
"++	c #0F3A6B",
"@+	c #181615",
"#+	c #C8C7C8",
"$+	c #000310",
"%+	c #166EAB",
"&+	c #2098C7",
"*+	c #1F93C4",
"=+	c #2296C7",
"-+	c #2096C6",
";+	c #2395C7",
">+	c #2295C8",
",+	c #2196C7",
"'+	c #2196C6",
")+	c #2097C7",
"!+	c #1D81B8",
"~+	c #186EA6",
"{+	c #166EA6",
"]+	c #176DA4",
"^+	c #105A97",
"/+	c #00010D",
"(+	c #CACACA",
"_+	c #757374",
":+	c #082645",
"<+	c #2190C4",
"[+	c #2393C5",
"}+	c #1F91C3",
"|+	c #1F94C4",
"1+	c #2193C4",
"2+	c #1B8EC2",
"3+	c #54AECF",
"4+	c #70B8D5",
"5+	c #6EB9D4",
"6+	c #2293C4",
"7+	c #2295C6",
"8+	c #1773A9",
"9+	c #196BA5",
"0+	c #156AA1",
"a+	c #1668A1",
"b+	c #072341",
"c+	c #777674",
"d+	c #3B3B39",
"e+	c #124F7C",
"f+	c #2295C7",
"g+	c #2191C3",
"h+	c #2091C3",
"i+	c #178CBF",
"j+	c #C1DFE9",
"k+	c #C1DFE7",
"l+	c #1F90C2",
"m+	c #15699F",
"n+	c #1769A1",
"o+	c #1568A0",
"p+	c #0E3E6D",
"q+	c #403D3B",
"r+	c #171314",
"s+	c #1975A5",
"t+	c #1F8FC1",
"u+	c #1D8EBF",
"v+	c #1F8CBF",
"w+	c #208CBF",
"x+	c #4FA4C8",
"y+	c #FFFFFE",
"z+	c #50A4C7",
"A+	c #1F8EC0",
"B+	c #1770A4",
"C+	c #15679F",
"D+	c #14669E",
"E+	c #15538B",
"F+	c #191617",
"G+	c #1D8ABF",
"H+	c #2090C3",
"I+	c #1E8ABE",
"J+	c #1D8ABE",
"K+	c #1D8ABD",
"L+	c #63ADD0",
"M+	c #63ADCF",
"N+	c #1B7AB1",
"O+	c #16649E",
"P+	c #15659D",
"Q+	c #13609A",
"R+	c #050301",
"S+	c #2193C7",
"T+	c #60ABCD",
"U+	c #FFFFFD",
"V+	c #1D86BB",
"W+	c #1E85BB",
"X+	c #1C80B6",
"Y+	c #15649D",
"Z+	c #13629B",
"`+	c #17649C",
" @	c #010000",
".@	c #218CC1",
"+@	c #1B83B6",
"@@	c #1C84B6",
"#@	c #1C84B7",
"$@	c #62A6CB",
"%@	c #1C80B4",
"&@	c #15609A",
"*@	c #14609A",
"=@	c #1763A0",
"-@	c #020000",
";@	c #060001",
">@	c #2391C6",
",@	c #208BC0",
"'@	c #1A7FB2",
")@	c #5FA5C9",
"!@	c #1B7FB4",
"~@	c #1F7DB4",
"{@	c #14609D",
"]@	c #030100",
"^@	c #181313",
"/@	c #1F86B5",
"(@	c #2089BC",
"_@	c #197CB0",
":@	c #1C7AB0",
"<@	c #5FA2C7",
"[@	c #5EA2C7",
"}@	c #1A7CB0",
"|@	c #1C79AF",
"1@	c #145E98",
"2@	c #125D97",
"3@	c #15598F",
"4@	c #161212",
"5@	c #3F3A38",
"6@	c #1D6B94",
"7@	c #1D87BB",
"8@	c #187BB0",
"9@	c #1A79AF",
"0@	c #1C78AE",
"a@	c #5EA1C6",
"b@	c #1B78AF",
"c@	c #1870A9",
"d@	c #115C96",
"e@	c #134875",
"f@	c #3D3A39",
"g@	c #747675",
"h@	c #134462",
"i@	c #1E87BC",
"j@	c #1A7CB1",
"k@	c #1A74AB",
"l@	c #1875AC",
"m@	c #438BB6",
"n@	c #1967A2",
"o@	c #145A96",
"p@	c #135996",
"q@	c #0E2E4A",
"r@	c #747471",
"s@	c #C7C9C7",
"t@	c #010B15",
"u@	c #208BC2",
"v@	c #1D80B4",
"w@	c #1670A8",
"x@	c #1970A9",
"y@	c #1269A1",
"z@	c #A7BFCF",
"A@	c #A8BFD0",
"B@	c #1A71AA",
"C@	c #135C9A",
"D@	c #135995",
"E@	c #135B98",
"F@	c #00060F",
"G@	c #C9C9C9",
"H@	c #161312",
"I@	c #1A6C94",
"J@	c #1D80B8",
"K@	c #1B81B5",
"L@	c #156DA5",
"M@	c #156DA6",
"N@	c #166DA4",
"O@	c #0F5F99",
"P@	c #35699F",
"Q@	c #4D78A7",
"R@	c #4C79A6",
"S@	c #14679E",
"T@	c #145995",
"U@	c #115892",
"V@	c #104777",
"W@	c #181716",
"X@	c #051B22",
"Y@	c #1F85BD",
"Z@	c #197EB2",
"`@	c #1668A2",
" #	c #1669A3",
".#	c #1668A0",
"+#	c #1569A1",
"@#	c #166AA1",
"##	c #176CA3",
"$#	c #176CA4",
"%#	c #186CA2",
"&#	c #1669A0",
"*#	c #1769A3",
"=#	c #125B95",
"-#	c #125793",
";#	c #0F5B99",
">#	c #040F1D",
",#	c #A0A0A0",
"'#	c #23201F",
")#	c #185477",
"!#	c #177EB4",
"~#	c #1A7BB2",
"{#	c #13649F",
"]#	c #14659D",
"^#	c #15659E",
"/#	c #14659E",
"(#	c #14669D",
"_#	c #17659E",
":#	c #115792",
"<#	c #105894",
"[#	c #103B60",
"}#	c #262423",
"|#	c #DBDBDA",
"1#	c #1B709C",
"2#	c #1D78B1",
"3#	c #1979AF",
"4#	c #196FA8",
"5#	c #15619A",
"6#	c #14619A",
"7#	c #14619B",
"8#	c #15619B",
"9#	c #135D98",
"0#	c #125693",
"a#	c #164D7E",
"b#	c #DFDDDD",
"c#	c #000007",
"d#	c #1B719F",
"e#	c #1D73AF",
"f#	c #1876A7",
"g#	c #176FA7",
"h#	c #11609C",
"i#	c #145D97",
"j#	c #135C97",
"k#	c #145D98",
"l#	c #125E97",
"m#	c #165B98",
"n#	c #0F5990",
"o#	c #125796",
"p#	c #154E84",
"q#	c #AFB0AF",
"r#	c #9C9E9D",
"s#	c #000006",
"t#	c #1A658F",
"u#	c #1774AF",
"v#	c #1870A8",
"w#	c #13679E",
"x#	c #135C96",
"y#	c #125794",
"z#	c #135894",
"A#	c #135895",
"B#	c #135794",
"C#	c #105B95",
"D#	c #115793",
"E#	c #125897",
"F#	c #184878",
"G#	c #A2A1A0",
"H#	c #B7B8B7",
"I#	c #143F5A",
"J#	c #1A72AC",
"K#	c #186CA3",
"L#	c #166BA1",
"M#	c #1667A0",
"N#	c #135F99",
"O#	c #145C97",
"P#	c #125A95",
"Q#	c #125C96",
"R#	c #115C97",
"S#	c #135A93",
"T#	c #135A95",
"U#	c #0C3050",
"V#	c #020101",
"W#	c #BDBCBC",
"X#	c #EAEDED",
"Y#	c #134769",
"Z#	c #1A6EA7",
"`#	c #196BA4",
" $	c #13699F",
".$	c #16669E",
"+$	c #12639C",
"@$	c #135B96",
"#$	c #155A92",
"$$	c #0F385F",
"%$	c #474543",
"&$	c #EEEEEE",
"*$	c #C5C5C4",
"=$	c #3E3D3C",
"-$	c #092437",
";$	c #124268",
">$	c #145689",
",$	c #17629A",
"'$	c #1665A0",
")$	c #17639F",
"!$	c #155D96",
"~$	c #125082",
"{$	c #0E3B60",
"]$	c #081D32",
"^$	c #444342",
"/$	c #CAC9C9",
"($	c #EEEEF0",
"_$	c #969796",
":$	c #575758",
"<$	c #2C2827",
"[$	c #0F0B09",
"}$	c #110B09",
"|$	c #2E2A27",
"1$	c #5A5959",
"2$	c #9B9B9B",
"3$	c #F0F2F2",
"                    . + @ # $ % % & * = - ;                     ",
"                > , % ' ) ! ~ { ] ^ ! / ( % _ :                 ",
"            < [ } | 1 2 3 4 5 6 6 7 8 9 0 a b c d e             ",
"          f g h i j k l m n o p q r s t u v w x y z A           ",
"        B C D E F G H I J K L M N O P P Q R S T U V W X         ",
"      Y W Z `  ...+.I o @.#.$.%.O &.*.=.R -.;.>.,.'.).W !.      ",
"    ~.% {.].^./.I (._.:.<.[.}.|.1.2.3.4.5.6.7.8.9.0.a.b.% c.    ",
"    d.e.f.g./.h.i.o j.k.l.m.n.o.o.o.m.l.p.q.r.s.0.t.u.v.w.x.    ",
"  y.z.A.B./.I C.D.E.F.F.G.G.F.F.F.F.G.G.F.F.H.I.J.K.L.L.M.N.O.  ",
"  P.Q.R./.h.i.I B.S.T.T.T.U.T.T.T.T.U.T.T.V.W.X.Y.Z.`. +.+++@+  ",
"#+$+%+&+I i.*+=+-+-+-+-+;+>+,+,+,+,+>+;+-+-+'+-+)+!+~+{+]+^+/+(+",
"_+:+<+[+I }+h.|+1+1+I 2+3+4+5+5+5+5+4+3+2+I I 1+6+7+8+9+0+a+b+c+",
"d+e+f+I J g+}+h+}+}+i+j+                k+i+l+}+}+}+O m+n+o+p+q+",
"r+s+(.o t+u+v+w+w+v+x+y+                y+z+q w+w+v+A+B+C+D+E+F+",
"z G+H+t+I+I+J+J+J+K+L+y+                y+M+J+J+J+J+J+N+O+P+Q+R+",
"% S+t+#.P P P P P &.T+y+                U+T+V+P P V+W+X+Y+Z+`+ @",
"% >+.@M +@@@@@@@@@#@$@y+                U+$@#@@@@@@@#@%@&@*@=@-@",
";@>@,@M '@-.%@%@%@%@)@y+                U+)@%@%@%@%@!@~@*@Q+{@]@",
"^@/@(@N _@:@8.8.8.8.<@y+                U+[@8.8.8.8.}@|@1@2@3@4@",
"5@6@O 7@8@9@0@0@0@s.a@y+                y+a@s.0@0@0@b@c@2@d@e@f@",
"g@h@i@P j@k@l@l@l@l@m@                    m@l@l@l@l@l@n@o@p@q@r@",
"s@t@u@=.v@w@x@x@x@x@y@z@                A@y@x@x@x@x@B@C@D@E@F@G@",
"  H@I@J@K@B@L@M@M@M@N@O@P@Q@R@R@R@R@Q@P@O@N@M@M@M@M@S@T@U@V@W@  ",
"  O.X@Y@Z@6.`@ # # #.#+#@###$#$#$#$#%#@#+#&# # # #*#=#-#;#>#,#  ",
"    '#)#!#~#K.{#]#]#^#/#]#(#]#]#]#]#(#]#/#/#]#]#_#2@:#<#[#}#    ",
"    |#% 1#2#3#4#5#6#7#6#6#6#6#6#6#6#6#6#6#6#6#8#9#0#<#a#% b#    ",
"      !.c#d#e#f#g#h#i#j#k#k#k#k#k#k#k#k#2@l#m#D@n#o#p#W q#      ",
"        r#s#t#u#`.v#w#x#y#z#A#z#A#z#z#B#C#d@D@D#E#F#C G#        ",
"          H#-@I#J# +K#L#M#N#O#P#D@P#d@Q#R#S#:#T#U#V#W#          ",
"            X#_ c Y#Z#`# $.$/#+$*@Q+2@d@@$#$$$s#%$&$            ",
"                *$=$% -$;$>$,$'$)$!$~${$]$% ^$/$                ",
"                    ($_$:$<$[$ @-@}$|$1$2$3$                    "};
