/* XPM */
static char * exit_xpm[] = {
"32 32 473 2",
"  	c None",
". 	c #D3361B",
"+ 	c #D1361B",
"@ 	c #CF341B",
"# 	c #CB331B",
"$ 	c #C6311A",
"% 	c #D6381B",
"& 	c #DB391B",
"* 	c #DF3B1C",
"= 	c #E13C1B",
"- 	c #E23C1B",
"; 	c #E13B1B",
"> 	c #DE3B1B",
", 	c #DA391B",
"' 	c #D4371B",
") 	c #CD341A",
"! 	c #C4301A",
"~ 	c #BB2D1A",
"{ 	c #D6371B",
"] 	c #DD3A1B",
"^ 	c #E53D1C",
"/ 	c #E93F1C",
"( 	c #EB431E",
"_ 	c #EC4520",
": 	c #EC461F",
"< 	c #EC441F",
"[ 	c #EA401D",
"} 	c #E73E1C",
"| 	c #CA331A",
"1 	c #BE2E1A",
"2 	c #B22919",
"3 	c #D7381B",
"4 	c #EA3F1C",
"5 	c #EC4720",
"6 	c #ED5126",
"7 	c #ED582A",
"8 	c #ED5C2C",
"9 	c #ED5C2D",
"0 	c #ED592B",
"a 	c #EC5427",
"b 	c #EC4C23",
"c 	c #EB421E",
"d 	c #E63E1C",
"e 	c #DE3A1B",
"f 	c #D5371B",
"g 	c #CB331A",
"h 	c #C02F1A",
"i 	c #B02819",
"j 	c #D7371B",
"k 	c #E33C1C",
"l 	c #EB421D",
"m 	c #EC4F24",
"n 	c #ED6733",
"o 	c #ED6F37",
"p 	c #ED743A",
"q 	c #EE753A",
"r 	c #ED7238",
"s 	c #ED6B35",
"t 	c #ED612F",
"u 	c #ED5528",
"v 	c #EC471F",
"w 	c #E73F1C",
"x 	c #DD3A1C",
"y 	c #BF2F1A",
"z 	c #AD2719",
"A 	c #D4361B",
"B 	c #EB411D",
"C 	c #EC5126",
"D 	c #ED7138",
"E 	c #EE7D3F",
"F 	c #EE8844",
"G 	c #ED8A42",
"H 	c #ED7936",
"I 	c #EF8047",
"J 	c #EF7A43",
"K 	c #EC652B",
"L 	c #EC652D",
"M 	c #ED592A",
"N 	c #DB3A1C",
"O 	c #C8321B",
"P 	c #BC2D1A",
"Q 	c #A72518",
"R 	c #DC3A1B",
"S 	c #ED602F",
"T 	c #ED7339",
"U 	c #EE8643",
"V 	c #ED863F",
"W 	c #F4AA85",
"X 	c #FBD8D1",
"Y 	c #FFFFFF",
"Z 	c #FBD8D0",
"` 	c #F4967A",
" .	c #EC4D20",
"..	c #EC431E",
"+.	c #CC341B",
"@.	c #C5311B",
"#.	c #B52B1A",
"$.	c #9D2118",
"%.	c #C5311A",
"&.	c #EC441E",
"*.	c #ED6E36",
"=.	c #EE8442",
"-.	c #F08F5A",
";.	c #FDECEA",
">.	c #FDEEEB",
",.	c #EF6242",
"'.	c #E83E1B",
").	c #DB3A1B",
"!.	c #CF351B",
"~.	c #C8321A",
"{.	c #AA2619",
"].	c #901C18",
"^.	c #C8331A",
"/.	c #D9391B",
"(.	c #EC4B23",
"_.	c #ED6230",
":.	c #ED7A3C",
"<.	c #F19163",
"[.	c #EF6A4E",
"}.	c #D2361B",
"|.	c #C9321B",
"1.	c #981F18",
"2.	c #BD2D1A",
"3.	c #CD341B",
"4.	c #ED5026",
"5.	c #ED6933",
"6.	c #EE7C46",
"7.	c #FBD1C8",
"8.	c #FBD4CB",
"9.	c #F9CEBB",
"0.	c #F4B987",
"a.	c #F4B683",
"b.	c #F9CBB8",
"c.	c #E54B2D",
"d.	c #C9331B",
"e.	c #C7311B",
"f.	c #BD2E1A",
"g.	c #A32319",
"h.	c #881917",
"i.	c #CF351A",
"j.	c #EA411C",
"k.	c #EC5328",
"l.	c #EC682E",
"m.	c #FAD2C8",
"n.	c #FFFBFB",
"o.	c #F9C2AF",
"p.	c #F7E0AE",
"q.	c #F0C167",
"r.	c #EEAC58",
"s.	c #F29C6A",
"t.	c #FFFDFF",
"u.	c #FACFC6",
"v.	c #D43214",
"w.	c #C2301A",
"x.	c #AC271A",
"y.	c #8C1A17",
"z.	c #CF361B",
"A.	c #EA401C",
"B.	c #EC5428",
"C.	c #EF7246",
"D.	c #F6BB9B",
"E.	c #F9E6BC",
"F.	c #FEFCF8",
"G.	c #FCE2DD",
"H.	c #FBD7CE",
"I.	c #F9CEB8",
"J.	c #F1B06C",
"K.	c #EFA957",
"L.	c #EE9049",
"M.	c #F39E75",
"N.	c #DF5238",
"O.	c #C4311A",
"P.	c #B2291A",
"Q.	c #921D18",
"R.	c #AD2819",
"S.	c #E83F1C",
"T.	c #ED5025",
"U.	c #F6A891",
"V.	c #FDE1DD",
"W.	c #F0BC67",
"X.	c #F4D192",
"Y.	c #FAE9C3",
"Z.	c #FAD3C3",
"`.	c #F9CDBA",
" +	c #EEA452",
".+	c #EE8A47",
"++	c #EC6E30",
"@+	c #FDE3DD",
"#+	c #ED9C8B",
"$+	c #C6311B",
"%+	c #B62B1A",
"&+	c #971F18",
"*+	c #861817",
"=+	c #AB2719",
"-+	c #D8381C",
";+	c #EC461D",
">+	c #F9CBBD",
",+	c #F6BFA0",
"'+	c #EFB85E",
")+	c #F0C36D",
"!+	c #F3CD81",
"~+	c #F8C9AE",
"{+	c #EE984B",
"]+	c #EE8142",
"^+	c #ED6A33",
"/+	c #F6AC93",
"(+	c #F8C8BC",
"_+	c #C32C16",
":+	c #C12F1A",
"<+	c #C7321B",
"[+	c #B82C19",
"}+	c #9A2019",
"|+	c #871917",
"1+	c #A72519",
"2+	c #BC2E1A",
"3+	c #CA331B",
"4+	c #D4381C",
"5+	c #E03B1B",
"6+	c #EB3D17",
"7+	c #FBD9CF",
"8+	c #F4AC85",
"9+	c #EEA454",
"0+	c #EFB05B",
"a+	c #EFBB60",
"b+	c #F7C4A3",
"c+	c #F9C9B6",
"d+	c #EE8642",
"e+	c #ED5E2E",
"f+	c #F49176",
"g+	c #FCD9CF",
"h+	c #C02914",
"i+	c #B82C1A",
"j+	c #9C2118",
"k+	c #A22318",
"l+	c #C7321A",
"m+	c #D0351B",
"n+	c #DA3A1C",
"o+	c #E63916",
"p+	c #FAD2C5",
"q+	c #F6AD8E",
"r+	c #EE8E49",
"s+	c #EE994E",
"t+	c #EEA252",
"u+	c #F6BD9F",
"v+	c #F9C6B4",
"w+	c #ED7237",
"x+	c #EC4F26",
"y+	c #F59882",
"z+	c #FAD1C5",
"A+	c #BD2914",
"B+	c #B62B19",
"C+	c #9C2119",
"D+	c #B22A1A",
"E+	c #DE3919",
"F+	c #F6B29E",
"G+	c #FACFC3",
"H+	c #ED7536",
"I+	c #EE8644",
"J+	c #F7B79C",
"K+	c #F9C5B4",
"L+	c #ED5E2B",
"M+	c #FACDC2",
"N+	c #F0AF9E",
"O+	c #BD2B18",
"P+	c #B32A19",
"Q+	c #871817",
"R+	c #EA7456",
"S+	c #EF6F46",
"T+	c #ED6934",
"U+	c #F18C5E",
"V+	c #FBDED3",
"W+	c #FBDDD3",
"X+	c #F3946E",
"Y+	c #EC421E",
"Z+	c #EB5839",
"`+	c #DE6F56",
" @	c #C22F1A",
".@	c #B0291A",
"+@	c #961E18",
"@@	c #9F2218",
"#@	c #B92C1A",
"$@	c #C6321A",
"%@	c #D73916",
"&@	c #FEEDE8",
"*@	c #ED5229",
"=@	c #ED5328",
"-@	c #EC5227",
";@	c #ED5827",
">@	c #EC5524",
",@	c #E74221",
"'@	c #FEEEEB",
")@	c #FFEEE8",
"!@	c #C73315",
"~@	c #CA321B",
"{@	c #C3311A",
"]@	c #AC2719",
"^@	c #911C18",
"/@	c #B12A1A",
"(@	c #C1301B",
"_@	c #C5301A",
":@	c #CB321A",
"<@	c #E67958",
"[@	c #FEF6F5",
"}@	c #F27E66",
"|@	c #EA3812",
"1@	c #E93915",
"2@	c #E73814",
"3@	c #E63511",
"4@	c #EE7C64",
"5@	c #FFF7F5",
"6@	c #E47858",
"7@	c #C9311A",
"8@	c #A92719",
"9@	c #921E18",
"0@	c #8C1B18",
"a@	c #A8281A",
"b@	c #BC2F1B",
"c@	c #C3301A",
"d@	c #C93319",
"e@	c #F2A98F",
"f@	c #FBDBD4",
"g@	c #F3A98F",
"h@	c #D03519",
"i@	c #8F1C18",
"j@	c #941E19",
"k@	c #B22D1B",
"l@	c #C3351D",
"m@	c #C8341C",
"n@	c #C12F1B",
"o@	c #C53319",
"p@	c #F0A283",
"q@	c #F2A384",
"r@	c #DA3C19",
"s@	c #D5391D",
"t@	c #CB381D",
"u@	c #B9301C",
"v@	c #9E2319",
"w@	c #9E241A",
"x@	c #B6301C",
"y@	c #C7391F",
"z@	c #CC3C20",
"A@	c #C5371E",
"B@	c #C0321C",
"C@	c #C03019",
"D@	c #DB663F",
"E@	c #FACFBB",
"F@	c #F9CFBB",
"G@	c #EB6B40",
"H@	c #E13D1C",
"I@	c #E1401E",
"J@	c #E0421F",
"K@	c #DE4320",
"L@	c #D63E1F",
"M@	c #C6361D",
"N@	c #AF2B1B",
"O@	c #992018",
"P@	c #8D1C18",
"Q@	c #A3281B",
"R@	c #B7321D",
"S@	c #C73A1F",
"T@	c #CD3E21",
"U@	c #CB4022",
"V@	c #CA4223",
"W@	c #C83F22",
"X@	c #C94422",
"Y@	c #D95A2C",
"Z@	c #E7875F",
"`@	c #EE9F7C",
" #	c #F0A07C",
".#	c #ED8960",
"+#	c #E8602C",
"@#	c #E64F24",
"##	c #E84C24",
"$#	c #E84D24",
"%#	c #E64B24",
"&#	c #E44821",
"*#	c #D13C1E",
"=#	c #BE331C",
"-#	c #A52519",
";#	c #901E19",
">#	c #A4291C",
",#	c #B5321E",
"'#	c #C4391F",
")#	c #CC3F21",
"!#	c #CF4223",
"~#	c #CF4524",
"{#	c #D14825",
"]#	c #D34B26",
"^#	c #D54C27",
"/#	c #DA4E27",
"(#	c #E05027",
"_#	c #E45228",
":#	c #E75328",
"<#	c #EA5227",
"[#	c #EC5026",
"}#	c #EA4D24",
"|#	c #E84A22",
"1#	c #E34621",
"2#	c #DA411F",
"3#	c #CA391E",
"4#	c #B12B1B",
"5#	c #8F1E19",
"6#	c #A3291C",
"7#	c #B1311E",
"8#	c #BF381F",
"9#	c #CA3F21",
"0#	c #D04222",
"a#	c #D34524",
"b#	c #D54825",
"c#	c #D94A26",
"d#	c #DE4E27",
"e#	c #E25026",
"f#	c #E65026",
"g#	c #E95026",
"h#	c #EB4F25",
"i#	c #EC4E24",
"j#	c #E94B22",
"k#	c #E64822",
"l#	c #E04420",
"m#	c #D43D1F",
"n#	c #BE311B",
"o#	c #8C1C18",
"p#	c #9C261C",
"q#	c #AC2E1E",
"r#	c #B9351F",
"s#	c #C43B21",
"t#	c #CD4022",
"u#	c #D24423",
"v#	c #D84724",
"w#	c #DD4924",
"x#	c #E24B24",
"y#	c #E54C25",
"z#	c #E74C24",
"A#	c #E94B24",
"B#	c #E94A23",
"C#	c #E84821",
"D#	c #E24420",
"E#	c #DB3F1F",
"F#	c #B72F19",
"G#	c #92201A",
"H#	c #A32A1C",
"I#	c #B0311E",
"J#	c #BB3620",
"K#	c #C43B20",
"L#	c #D34221",
"M#	c #DA4522",
"N#	c #DE4621",
"O#	c #E24721",
"P#	c #E34722",
"Q#	c #E34521",
"R#	c #E14320",
"S#	c #D73C1D",
"T#	c #6E1C0F",
"U#	c #000000",
"V#	c #641311",
"W#	c #871E17",
"X#	c #A6291D",
"Y#	c #B02F1E",
"Z#	c #B9341F",
"`#	c #C0371F",
" $	c #C93C1F",
".$	c #D23D21",
"+$	c #D93F20",
"@$	c #DF3F1F",
"#$	c #B83319",
"$$	c #691B0E",
"%$	c #380B09",
"&$	c #51120C",
"*$	c #5E160F",
"=$	c #62180E",
"-$	c #59160D",
";$	c #3E0F08",
">$	c #070101",
"                          . . + @ # $                           ",
"                    % & * = - ; > , ' ) ! ~                     ",
"                { ] ^ / ( _ : < [ } - & . | 1 2                 ",
"              3 - 4 5 6 7 8 9 0 a b c d e f g h i               ",
"            j k l m 9 n o p q r s t u v w x . | y z             ",
"          A = B C t D E F G H I J K L M 5 d N + O P Q           ",
"        ) R / b S T U V W X Y Y Y Y Z `  ...= % +.@.#.$.        ",
"      %.' - &.M *.=.-.;.Y Y Y Y Y Y Y Y >.,.'.).!.~.h {.].      ",
"      ^./.} (._.:.<.Y Y Y Y Y Y Y Y Y Y Y Y [.e }.|.%.#.1.      ",
"    2.3.).4 4.5.6.Y Y Y Y 7.8.9.0.a.b.Y Y Y Y c.' d.e.f.g.h.    ",
"    f.i.x j.k.l.m.Y Y n.o.Y Y Y p.q.r.s.t.Y Y u.v.d.%.w.x.y.    ",
"    y z.x A.B.C.Y Y Y D.E.F.G.H.I.J.K.L.M.Y Y Y N.|.O.@.P.Q.    ",
"  R.h @ N S.T.U.Y Y V.W.X.Y.Z.Y Y `. +.+++@+Y Y #+$ w.$+%+&+*+  ",
"  =+1 3.-+d ;+>+Y Y ,+'+)+!+~+Y Y b.{+]+^+/+Y Y (+_+:+<+[+}+|+  ",
"  1+2+3+4+5+6+7+Y Y 8+9+0+a+b+Y Y c+d+T e+f+Y Y g+h+h <+i+j+h.  ",
"  k+i+l+m+n+o+p+Y Y q+r+s+t+u+Y Y v+w+_.x+y+Y Y z+A+:+$+B+C+h.  ",
"  $.D+! # A E+F+Y Y G+H+]+I+J+Y Y K+L+C 6+M+Y Y N+O+O.$+P+}+Q+  ",
"    {.h l+3.{ R+Y Y Y S+T+s U+V+W+X+(.Y+Z+Y Y Y `+ @<+%..@+@    ",
"    @@#@%.$@3.%@&@Y Y >.*@=@-@;@>@..A.,@'@Y Y )@!@l+~@{@]@^@    ",
"    &+/@(@_@$ :@<@Y Y Y [@}@|@1@2@3@4@5@Y Y Y 6@7@+.g y 8@9@    ",
"    0@a@b@%. @c@d@e@Y Y Y Y Y f@f@Y Y Y Y Y g@h@+ !.# b@a@i@    ",
"      j@k@l@m@n@h o@p@Y Y Y Y Y Y Y Y Y Y q@r@/.% s@t@u@v@      ",
"      h.w@x@y@z@A@B@C@D@E@Y Y Y Y Y Y F@G@H@I@J@K@L@M@N@O@      ",
"        P@Q@R@S@T@U@V@W@X@Y@Z@`@ #.#+#@###$#%#&#K@*#=#-#        ",
"          ;#>#,#'#)#!#~#{#]#^#/#(#_#:#<#[#}#|#1#2#3#4#          ",
"            5#6#7#8#9#0#a#b#c#d#e#f#g#h#i#j#k#l#m#n#            ",
"              o#p#q#r#s#t#u#v#w#x#y#z#A#B#C#D#E#F#              ",
"                  G#H#I#J#K#)#L#M#N#O#P#Q#R#S#T#U#              ",
"                    V#W#X#Y#Z#`# $.$+$@$#$$$U#U#U#              ",
"                          %$&$*$=$-$;$>$U#U#U#                  ",
"                                                                ",
"                                                                "};
